<svg width="122" height="125" viewBox="0 0 122 125" fill="none" xmlns="http://www.w3.org/2000/svg">
<path d="M3 26.2353L72.6471 41.2942M3 26.2353L3.94118 105.529M3 26.2353L51 3.58114M72.6471 41.2942V122.471M72.6471 41.2942L119 17.2942M72.6471 122.471L3.94118 105.529M72.6471 122.471L119 101.529V97.5295M3.94118 105.529L51 83.6471V82.0001M119 17.2942L53.3529 2.47064L51 3.58114M119 17.2942V97.5295M51 3.58114V82.0001M51 82.0001L119 97.5295" stroke="#DA2845" stroke-width="4.70588"/>
<path d="M43.4706 38V32.353L48.6471 33.2941V38.7059L43.4706 38Z" fill="white"/>
<path d="M66.0588 42.4706V37.2941L72.4118 38.2353L70.2941 43.1765L66.0588 42.4706Z" fill="white"/>
<path d="M65.3529 123.176V118L70.2941 119.176V124.588L65.3529 123.176Z" fill="white"/>
<path d="M75 124.588V118L79.2353 116.353V122.706L75 124.588Z" fill="white"/>
<path d="M48.6471 2.00003L43.9412 4.11768V9.52944L48.6471 7.64709V2.00003Z" fill="white"/>
<path d="M57.5882 80.5883L53.3529 79.8824V85.2942L57.5882 86.2353V80.5883Z" fill="white"/>
<path d="M78.7647 85.5294L75 84.353V90.2353L78.7647 90.9412V85.5294Z" fill="white"/>
</svg>
