<svg width="793" height="120" viewBox="0 0 793 120" fill="none" xmlns="http://www.w3.org/2000/svg">
<path d="M151.64 115H122.826L160.252 4.07591H195.944L233.371 115H204.556L178.504 32.0236H177.638L151.64 115ZM147.794 71.3453H208.023V91.7103H147.794V71.3453ZM252.939 115V4.07591H298.76C307.065 4.07591 314.233 5.70078 320.263 8.95051C326.329 12.1641 331.005 16.6596 334.291 22.4369C337.577 28.1781 339.22 34.8581 339.22 42.4769C339.22 50.1318 337.541 56.8298 334.183 62.571C330.861 68.2761 326.112 72.6994 319.938 75.8408C313.763 78.9822 306.433 80.5529 297.948 80.5529H269.675V59.4296H292.965C297.009 59.4296 300.385 58.7255 303.093 57.3173C305.838 55.9091 307.914 53.9412 309.322 51.4136C310.73 48.85 311.434 45.871 311.434 42.4769C311.434 39.0466 310.73 36.0857 309.322 33.5943C307.914 31.0667 305.838 29.1169 303.093 27.7448C300.349 26.3727 296.973 25.6866 292.965 25.6866H279.75V115H252.939ZM508.054 4.07591V115H481.244V4.07591H508.054ZM532.511 115V4.07591H609.854V25.8491H559.321V48.5972H605.9V70.4245H559.321V93.2268H609.854V115H532.511ZM660.864 115L628.584 4.07591H658.21L674.946 76.7615H675.867L694.986 4.07591H719.143L738.262 76.924H739.183L755.973 4.07591H785.546L753.319 115H727.484L707.498 47.7306H706.631L686.645 115H660.864Z" fill="black"/>
<path d="M28.5975 114.364H0V13.5532H27.2299L54.6945 42.2512L81.9244 13.7985L75.5864 7.1759H109.624V43.4776L102.582 36.1192L54.6945 86.1567L28.5975 57.1692V114.364Z" fill="url(#paint0_linear_83_228)"/>
<path d="M109.389 57.4587L81.0263 85.7667V114.364H109.389V57.4587Z" fill="url(#paint1_linear_83_228)"/>
<path d="M373.918 4.74103H357.47L361.582 15.8141L373.918 4.74103Z" fill="black"/>
<path d="M409.899 83.3601L391.394 15.8141L368.778 39.0677L391.394 114.365H428.403L462.327 4.74103H431.487L409.899 83.3601Z" fill="black"/>
<path d="M373.918 4.74103H357.47L361.582 15.8141L373.918 4.74103Z" stroke="black"/>
<path d="M409.899 83.3601L391.394 15.8141L368.778 39.0677L391.394 114.365H428.403L462.327 4.74103H431.487L409.899 83.3601Z" stroke="black"/>
<defs>
<linearGradient id="paint0_linear_83_228" x1="0" y1="60.77" x2="109.624" y2="60.77" gradientUnits="userSpaceOnUse">
<stop stop-color="#DA2845"/>
<stop offset="0.565" stop-color="#6338AF"/>
<stop offset="1" stop-color="#011D94"/>
</linearGradient>
<linearGradient id="paint1_linear_83_228" x1="0" y1="60.77" x2="109.624" y2="60.77" gradientUnits="userSpaceOnUse">
<stop stop-color="#DA2845"/>
<stop offset="0.565" stop-color="#6338AF"/>
<stop offset="1" stop-color="#011D94"/>
</linearGradient>
</defs>
</svg>
