<svg width="157" height="99" viewBox="0 0 157 99" fill="none" xmlns="http://www.w3.org/2000/svg">
<path d="M97.8542 45.1981C90.5196 50.0177 83.5305 52.523 78.8099 53.3673C70.7864 51.9046 63.9072 48.9777 58.0583 45.1981M97.8542 45.1981C108.982 37.8862 120.905 25.2474 126.909 5C134.152 7.6382 149.616 20.6534 153.522 51.6085C143.43 46.1122 120.024 40.7038 107.132 63.0407L97.8542 45.1981ZM58.0583 45.1981C40.6982 33.9801 32.4141 15.2505 30.2226 5C8.3461 15.5529 3.03974 40.4693 3.12113 51.6085C28.3182 39.2968 44.8721 54.1001 49.9994 63.0407L58.0583 45.1981ZM62.4514 37.538L68.7995 25.2263L78.0775 33.8005L87.5996 25.2263L93.9477 36.6586" stroke="url(#paint0_linear_83_210)" stroke-width="5.61201"/>
<path d="M59.2762 75.0054L77.6464 94.792L97.3648 75.0054" stroke="url(#paint1_linear_83_210)" stroke-width="5.61201"/>
<defs>
<linearGradient id="paint0_linear_83_210" x1="3.12021" y1="34.0204" x2="153.522" y2="34.0204" gradientUnits="userSpaceOnUse">
<stop stop-color="#DA2845"/>
<stop offset="0.445" stop-color="#6338AF"/>
<stop offset="1" stop-color="#011D94"/>
</linearGradient>
<linearGradient id="paint1_linear_83_210" x1="59.2762" y1="84.8987" x2="97.3648" y2="84.8987" gradientUnits="userSpaceOnUse">
<stop stop-color="#843492"/>
<stop offset="0.815" stop-color="#5A35AC"/>
<stop offset="1" stop-color="#011D94"/>
</linearGradient>
</defs>
</svg>
