<?xml version="1.0" encoding="UTF-8"?>
<svg xmlns="http://www.w3.org/2000/svg" xmlns:xlink="http://www.w3.org/1999/xlink" width="2000px" height="2000px" viewBox="0 0 2000 2000" version="1.1">
<g id="surface1">
<rect x="0" y="0" width="2000" height="2000" style="fill:rgb(99.215686%,99.215686%,98.823529%);fill-opacity:1;stroke:none;"/>
<path style=" stroke:none;fill-rule:nonzero;fill:rgb(28.627452%,52.941179%,99.215686%);fill-opacity:1;" d="M 986.667969 584.445312 L 1015.554688 584.445312 L 1066.667969 591.109375 L 1122.222656 604.445312 L 1166.667969 622.222656 L 1213.332031 646.667969 L 1240 664.445312 L 1260 680 L 1260 686.667969 L 1224.445312 686.667969 L 1204.445312 697.777344 L 1188.890625 713.332031 L 1166.667969 746.667969 L 1151.109375 780 L 1135.554688 824.445312 L 1120 891.109375 L 1115.554688 913.332031 L 1113.332031 917.777344 L 1104.445312 975.554688 L 1095.554688 1055.554688 L 1091.109375 1086.667969 L 1091.109375 1106.667969 L 1086.667969 1140 L 1086.667969 1157.777344 L 1084.445312 1186.667969 L 1082.222656 1206.667969 L 1073.332031 1271.109375 L 1064.445312 1306.667969 L 1055.554688 1328.890625 L 1040 1360 L 1020 1380 L 991.109375 1395.554688 L 966.667969 1397.777344 L 966.667969 1402.222656 L 942.222656 1406.667969 L 897.777344 1397.777344 L 860 1386.667969 L 813.332031 1366.667969 L 782.222656 1348.890625 L 755.554688 1331.109375 L 731.109375 1311.109375 L 708.890625 1291.109375 L 693.332031 1275.554688 L 673.332031 1251.109375 L 648.890625 1217.777344 L 622.222656 1166.667969 L 604.445312 1120 L 593.332031 1077.777344 L 586.667969 1042.222656 L 586.667969 964.445312 L 591.109375 955.554688 L 604.445312 977.777344 L 624.445312 997.777344 L 640 1004.445312 L 666.667969 1004.445312 L 695.554688 988.890625 L 708.890625 977.777344 L 715.554688 968.890625 L 720 968.890625 L 724.445312 960 L 744.445312 931.109375 L 762.222656 895.554688 L 780 862.222656 L 802.222656 813.332031 L 817.777344 780 L 846.667969 722.222656 L 871.109375 677.777344 L 888.890625 651.109375 L 908.890625 628.890625 L 924.445312 613.332031 L 948.890625 597.777344 L 971.109375 586.667969 Z M 986.667969 584.445312 "/>
<path style=" stroke:none;fill-rule:nonzero;fill:rgb(95.294118%,29.019609%,94.509804%);fill-opacity:1;" d="M 1260 682.222656 L 1271.109375 688.890625 L 1302.222656 720 L 1322.222656 744.445312 L 1340 768.890625 L 1360 802.222656 L 1382.222656 851.109375 L 1397.777344 897.777344 L 1406.667969 937.777344 L 1411.109375 973.332031 L 1411.109375 1028.890625 L 1402.222656 1077.777344 L 1386.667969 1133.332031 L 1366.667969 1182.222656 L 1342.222656 1224.445312 L 1315.554688 1260 L 1288.890625 1288.890625 L 1266.667969 1311.109375 L 1237.777344 1333.332031 L 1204.445312 1355.554688 L 1148.890625 1382.222656 L 1106.667969 1395.554688 L 1068.890625 1404.445312 L 1017.777344 1411.109375 L 973.332031 1411.109375 L 944.445312 1406.667969 L 944.445312 1404.445312 L 966.667969 1402.222656 L 966.667969 1397.777344 L 995.554688 1391.109375 L 1022.222656 1375.554688 L 1037.777344 1360 L 1053.332031 1328.890625 L 1064.445312 1300 L 1073.332031 1260 L 1080 1202.222656 L 1084.445312 1151.109375 L 1086.667969 1122.222656 L 1088.890625 1100 L 1091.109375 1071.109375 L 1102.222656 975.554688 L 1111.109375 917.777344 L 1115.554688 904.445312 L 1124.445312 862.222656 L 1133.332031 824.445312 L 1148.890625 780 L 1166.667969 744.445312 L 1182.222656 720 L 1202.222656 697.777344 L 1217.777344 686.667969 L 1228.890625 684.445312 L 1255.554688 684.445312 L 1260 686.667969 Z M 1260 682.222656 "/>
<path style=" stroke:none;fill-rule:nonzero;fill:rgb(28.235295%,94.509804%,82.745099%);fill-opacity:1;" d="M 986.667969 584.445312 L 1015.554688 584.445312 L 1037.777344 586.667969 L 1042.222656 588.890625 L 1042.222656 597.777344 L 1033.332031 600 L 1033.332031 604.445312 L 1008.890625 617.777344 L 995.554688 628.890625 L 993.332031 633.332031 L 988.890625 633.332031 L 984.445312 642.222656 L 968.890625 664.445312 L 946.667969 702.222656 L 908.890625 788.890625 L 880 866.667969 L 844.445312 973.332031 L 831.109375 1015.554688 L 817.777344 1048.890625 L 806.667969 1075.554688 L 793.332031 1100 L 775.554688 1124.445312 L 755.554688 1146.667969 L 735.554688 1157.777344 L 726.667969 1160 L 695.554688 1160 L 664.445312 1151.109375 L 646.667969 1142.222656 L 622.222656 1117.777344 L 604.445312 1095.554688 L 602.222656 1088.890625 L 595.554688 1088.890625 L 586.667969 1042.222656 L 586.667969 964.445312 L 591.109375 955.554688 L 604.445312 977.777344 L 624.445312 997.777344 L 640 1004.445312 L 666.667969 1004.445312 L 695.554688 988.890625 L 708.890625 977.777344 L 715.554688 968.890625 L 720 968.890625 L 724.445312 960 L 744.445312 931.109375 L 762.222656 895.554688 L 780 862.222656 L 802.222656 813.332031 L 817.777344 780 L 846.667969 722.222656 L 871.109375 677.777344 L 888.890625 651.109375 L 908.890625 628.890625 L 924.445312 613.332031 L 948.890625 597.777344 L 971.109375 586.667969 Z M 986.667969 584.445312 "/>
<path style=" stroke:none;fill-rule:nonzero;fill:rgb(58.431375%,43.137255%,96.862745%);fill-opacity:1;" d="M 1260 682.222656 L 1271.109375 688.890625 L 1300 717.777344 L 1293.332031 717.777344 L 1284.445312 711.109375 L 1255.554688 713.332031 L 1231.109375 724.445312 L 1211.109375 751.109375 L 1193.332031 784.445312 L 1184.445312 808.890625 L 1173.332031 848.890625 L 1166.667969 871.109375 L 1162.222656 900 L 1155.554688 942.222656 L 1148.890625 988.890625 L 1142.222656 1064.445312 L 1137.777344 1146.667969 L 1135.554688 1191.109375 L 1128.890625 1255.554688 L 1122.222656 1293.332031 L 1113.332031 1326.667969 L 1106.667969 1340 L 1091.109375 1368.890625 L 1077.777344 1380 L 1073.332031 1380 L 1073.332031 1384.445312 L 1064.445312 1386.667969 L 1064.445312 1391.109375 L 1053.332031 1400 L 1022.222656 1406.667969 L 960 1406.667969 L 960 1402.222656 L 966.667969 1402.222656 L 966.667969 1397.777344 L 995.554688 1391.109375 L 1022.222656 1375.554688 L 1037.777344 1360 L 1053.332031 1328.890625 L 1064.445312 1300 L 1073.332031 1260 L 1080 1202.222656 L 1084.445312 1151.109375 L 1086.667969 1122.222656 L 1088.890625 1100 L 1091.109375 1071.109375 L 1102.222656 975.554688 L 1111.109375 917.777344 L 1115.554688 904.445312 L 1124.445312 862.222656 L 1133.332031 824.445312 L 1148.890625 780 L 1166.667969 744.445312 L 1182.222656 720 L 1202.222656 697.777344 L 1217.777344 686.667969 L 1228.890625 684.445312 L 1255.554688 684.445312 L 1260 686.667969 Z M 1260 682.222656 "/>
<path style=" stroke:none;fill-rule:nonzero;fill:rgb(38.431373%,50.196081%,98.039216%);fill-opacity:1;" d="M 1211.109375 646.667969 L 1237.777344 662.222656 L 1260 680 L 1260 686.667969 L 1224.445312 686.667969 L 1204.445312 697.777344 L 1188.890625 713.332031 L 1166.667969 746.667969 L 1151.109375 780 L 1135.554688 824.445312 L 1120 891.109375 L 1115.554688 913.332031 L 1113.332031 917.777344 L 1104.445312 975.554688 L 1095.554688 1055.554688 L 1091.109375 1086.667969 L 1091.109375 1106.667969 L 1086.667969 1140 L 1086.667969 1157.777344 L 1084.445312 1186.667969 L 1082.222656 1206.667969 L 1073.332031 1271.109375 L 1064.445312 1306.667969 L 1055.554688 1328.890625 L 1040 1360 L 1020 1380 L 991.109375 1395.554688 L 966.667969 1397.777344 L 966.667969 1402.222656 L 942.222656 1406.667969 L 897.777344 1397.777344 L 860 1386.667969 L 853.332031 1380 L 857.777344 1375.554688 L 875.554688 1375.554688 L 893.332031 1380 L 908.890625 1380 L 944.445312 1373.332031 L 966.667969 1362.222656 L 984.445312 1342.222656 L 1000 1320 L 1008.890625 1300 L 1024.445312 1251.109375 L 1037.777344 1191.109375 L 1053.332031 1111.109375 L 1060 1040 L 1071.109375 966.667969 L 1073.332031 944.445312 L 1080 893.332031 L 1100 804.445312 L 1108.890625 777.777344 L 1120 751.109375 L 1135.554688 717.777344 L 1153.332031 688.890625 L 1173.332031 666.667969 L 1193.332031 660 L 1208.890625 660 L 1215.554688 657.777344 Z M 1211.109375 646.667969 "/>
<path style=" stroke:none;fill-rule:nonzero;fill:rgb(95.294118%,29.019609%,94.509804%);fill-opacity:1;" d="M 955.554688 588.890625 L 964.445312 591.109375 L 933.332031 608.890625 L 906.667969 633.332031 L 888.890625 653.332031 L 864.445312 693.332031 L 848.890625 722.222656 L 831.109375 757.777344 L 806.667969 811.109375 L 788.890625 846.667969 L 768.890625 888.890625 L 751.109375 922.222656 L 735.554688 946.667969 L 720 968.890625 L 708.890625 980 L 688.890625 995.554688 L 666.667969 1006.667969 L 640 1006.667969 L 622.222656 997.777344 L 602.222656 977.777344 L 591.109375 960 L 593.332031 920 L 602.222656 891.109375 L 613.332031 893.332031 L 626.667969 900 L 644.445312 900 L 666.667969 891.109375 L 693.332031 868.890625 L 713.332031 842.222656 L 733.332031 813.332031 L 762.222656 766.667969 L 786.667969 724.445312 L 817.777344 677.777344 L 837.777344 651.109375 L 864.445312 624.445312 L 893.332031 602.222656 L 922.222656 593.332031 Z M 955.554688 588.890625 "/>
<path style=" stroke:none;fill-rule:nonzero;fill:rgb(100%,79.607844%,16.078432%);fill-opacity:1;" d="M 888.890625 602.222656 L 893.332031 604.445312 L 857.777344 633.332031 L 835.554688 655.554688 L 804.445312 700 L 780 740 L 751.109375 788.890625 L 722.222656 833.332031 L 691.109375 873.332031 L 666.667969 893.332031 L 644.445312 902.222656 L 626.667969 902.222656 L 611.109375 893.332031 L 602.222656 888.890625 L 613.332031 851.109375 L 633.332031 806.667969 L 651.109375 775.554688 L 677.777344 737.777344 L 713.332031 700 L 737.777344 677.777344 L 762.222656 660 L 802.222656 635.554688 L 857.777344 611.109375 Z M 888.890625 602.222656 "/>
<path style=" stroke:none;fill-rule:nonzero;fill:rgb(29.411766%,64.705884%,96.862745%);fill-opacity:1;" d="M 1042.222656 588.890625 L 1077.777344 593.332031 L 1097.777344 597.777344 L 1097.777344 600 L 1073.332031 597.777344 L 1060 595.554688 L 1060 600 L 1046.667969 608.890625 L 1035.554688 613.332031 L 1015.554688 628.890625 L 1006.667969 640 L 1002.222656 640 L 997.777344 648.890625 L 982.222656 671.109375 L 964.445312 708.890625 L 951.109375 735.554688 L 937.777344 768.890625 L 920 824.445312 L 893.332031 913.332031 L 877.777344 971.109375 L 855.554688 1037.777344 L 848.890625 1060 L 831.109375 1108.890625 L 811.109375 1146.667969 L 791.109375 1168.890625 L 775.554688 1182.222656 L 753.332031 1193.332031 L 720 1195.554688 L 686.667969 1188.890625 L 666.667969 1175.554688 L 642.222656 1155.554688 L 631.109375 1146.667969 L 624.445312 1135.554688 L 615.554688 1122.222656 L 608.890625 1113.332031 L 608.890625 1126.667969 L 604.445312 1120 L 597.777344 1095.554688 L 597.777344 1088.890625 L 602.222656 1088.890625 L 624.445312 1117.777344 L 635.554688 1128.890625 L 653.332031 1144.445312 L 684.445312 1155.554688 L 695.554688 1157.777344 L 726.667969 1157.777344 L 748.890625 1148.890625 L 766.667969 1133.332031 L 786.667969 1106.667969 L 804.445312 1075.554688 L 824.445312 1028.890625 L 840 982.222656 L 851.109375 944.445312 L 873.332031 880 L 886.667969 842.222656 L 902.222656 802.222656 L 913.332031 773.332031 L 946.667969 697.777344 L 966.667969 664.445312 L 984.445312 640 L 988.890625 633.332031 L 993.332031 633.332031 L 997.777344 624.445312 L 1020 608.890625 L 1033.332031 604.445312 L 1033.332031 600 L 1042.222656 597.777344 Z M 1042.222656 588.890625 "/>
<path style=" stroke:none;fill-rule:nonzero;fill:rgb(67.450982%,39.607844%,96.078432%);fill-opacity:1;" d="M 1242.222656 695.554688 L 1257.777344 695.554688 L 1273.332031 697.777344 L 1284.445312 704.445312 L 1300 717.777344 L 1293.332031 717.777344 L 1284.445312 711.109375 L 1255.554688 713.332031 L 1231.109375 724.445312 L 1211.109375 751.109375 L 1193.332031 784.445312 L 1184.445312 808.890625 L 1173.332031 848.890625 L 1166.667969 871.109375 L 1162.222656 900 L 1155.554688 942.222656 L 1148.890625 988.890625 L 1142.222656 1064.445312 L 1137.777344 1146.667969 L 1135.554688 1191.109375 L 1128.890625 1255.554688 L 1122.222656 1293.332031 L 1113.332031 1326.667969 L 1106.667969 1340 L 1091.109375 1368.890625 L 1077.777344 1380 L 1073.332031 1380 L 1073.332031 1384.445312 L 1064.445312 1386.667969 L 1064.445312 1391.109375 L 1053.332031 1400 L 1022.222656 1406.667969 L 1011.109375 1406.667969 L 1015.554688 1404.445312 L 1020 1395.554688 L 1051.109375 1380 L 1068.890625 1355.554688 L 1082.222656 1333.332031 L 1093.332031 1297.777344 L 1095.554688 1280 L 1097.777344 1277.777344 L 1104.445312 1231.109375 L 1108.890625 1160 L 1111.109375 1117.777344 L 1113.332031 1097.777344 L 1117.777344 1042.222656 L 1126.667969 966.667969 L 1131.109375 940 L 1137.777344 895.554688 L 1144.445312 862.222656 L 1157.777344 817.777344 L 1164.445312 797.777344 L 1171.109375 775.554688 L 1197.777344 728.890625 L 1206.667969 717.777344 L 1228.890625 700 Z M 1242.222656 695.554688 "/>
<path style=" stroke:none;fill-rule:nonzero;fill:rgb(29.803923%,57.647061%,99.215686%);fill-opacity:1;" d="M 1060 595.554688 L 1073.332031 595.554688 L 1077.777344 600 L 1062.222656 613.332031 L 1055.554688 613.332031 L 1053.332031 620 L 1028.890625 640 L 1015.554688 657.777344 L 1015.554688 666.667969 L 1024.445312 662.222656 L 1024.445312 671.109375 L 1020 680 L 1020 688.890625 L 1008.890625 704.445312 L 995.554688 708.890625 L 977.777344 744.445312 L 957.777344 775.554688 L 944.445312 806.667969 L 935.554688 828.890625 L 902.222656 926.667969 L 875.554688 1020 L 866.667969 1044.445312 L 857.777344 1082.222656 L 842.222656 1135.554688 L 831.109375 1162.222656 L 815.554688 1182.222656 L 811.109375 1193.332031 L 800 1204.445312 L 795.554688 1204.445312 L 795.554688 1208.890625 L 777.777344 1220 L 757.777344 1226.667969 L 751.109375 1231.109375 L 733.332031 1231.109375 L 724.445312 1226.667969 L 713.332031 1217.777344 L 693.332031 1208.890625 L 680 1204.445312 L 680 1211.109375 L 677.777344 1215.554688 L 666.667969 1206.667969 L 666.667969 1202.222656 L 657.777344 1197.777344 L 642.222656 1177.777344 L 633.332031 1168.890625 L 628.890625 1151.109375 L 622.222656 1148.890625 L 622.222656 1144.445312 L 617.777344 1144.445312 L 615.554688 1151.109375 L 608.890625 1133.332031 L 606.667969 1111.109375 L 617.777344 1122.222656 L 631.109375 1140 L 637.777344 1151.109375 L 651.109375 1160 L 671.109375 1177.777344 L 693.332031 1188.890625 L 720 1193.332031 L 753.332031 1191.109375 L 777.777344 1177.777344 L 795.554688 1162.222656 L 808.890625 1146.667969 L 828.890625 1108.890625 L 842.222656 1073.332031 L 853.332031 1037.777344 L 868.890625 991.109375 L 886.667969 931.109375 L 902.222656 875.554688 L 922.222656 811.109375 L 940 755.554688 L 948.890625 735.554688 L 984.445312 664.445312 L 997.777344 646.667969 L 1017.777344 624.445312 L 1037.777344 608.890625 L 1053.332031 602.222656 L 1060 600 Z M 1060 595.554688 "/>
<path style=" stroke:none;fill-rule:nonzero;fill:rgb(27.843139%,89.019608%,84.313726%);fill-opacity:1;" d="M 986.667969 584.445312 L 1015.554688 584.445312 L 1037.777344 586.667969 L 1042.222656 588.890625 L 1042.222656 597.777344 L 1033.332031 600 L 1033.332031 604.445312 L 1008.890625 617.777344 L 995.554688 628.890625 L 993.332031 633.332031 L 988.890625 633.332031 L 984.445312 642.222656 L 968.890625 664.445312 L 946.667969 702.222656 L 908.890625 788.890625 L 880 866.667969 L 844.445312 973.332031 L 831.109375 1015.554688 L 817.777344 1048.890625 L 806.667969 1075.554688 L 793.332031 1100 L 775.554688 1124.445312 L 755.554688 1146.667969 L 735.554688 1157.777344 L 726.667969 1160 L 695.554688 1160 L 664.445312 1151.109375 L 646.667969 1142.222656 L 622.222656 1117.777344 L 604.445312 1095.554688 L 602.222656 1088.890625 L 595.554688 1088.890625 L 593.332031 1066.667969 L 595.554688 1075.554688 L 602.222656 1077.777344 L 611.109375 1091.109375 L 620 1102.222656 L 642.222656 1113.332031 L 660 1120 L 682.222656 1124.445312 L 717.777344 1124.445312 L 731.109375 1117.777344 L 753.332031 1097.777344 L 775.554688 1068.890625 L 793.332031 1037.777344 L 806.667969 1011.109375 L 831.109375 948.890625 L 866.667969 846.667969 L 873.332031 826.667969 L 888.890625 784.445312 L 900 753.332031 L 915.554688 720 L 928.890625 693.332031 L 944.445312 668.890625 L 955.554688 651.109375 L 964.445312 642.222656 L 968.890625 642.222656 L 973.332031 633.332031 L 995.554688 602.222656 L 1002.222656 588.890625 L 971.109375 591.109375 L 971.109375 586.667969 Z M 986.667969 584.445312 "/>
<path style=" stroke:none;fill-rule:nonzero;fill:rgb(85.882354%,46.27451%,94.509804%);fill-opacity:1;" d="M 955.554688 588.890625 L 964.445312 591.109375 L 933.332031 608.890625 L 906.667969 633.332031 L 888.890625 653.332031 L 864.445312 693.332031 L 848.890625 722.222656 L 831.109375 757.777344 L 806.667969 811.109375 L 788.890625 846.667969 L 768.890625 888.890625 L 751.109375 922.222656 L 735.554688 946.667969 L 720 968.890625 L 708.890625 980 L 688.890625 995.554688 L 666.667969 1006.667969 L 640 1006.667969 L 622.222656 997.777344 L 602.222656 977.777344 L 591.109375 960 L 593.332031 920 L 597.777344 911.109375 L 597.777344 953.332031 L 617.777344 960 L 644.445312 960 L 668.890625 951.109375 L 682.222656 942.222656 L 688.890625 940 L 693.332031 931.109375 L 704.445312 920 L 708.890625 920 L 713.332031 911.109375 L 717.777344 911.109375 L 720 902.222656 L 733.332031 884.445312 L 742.222656 866.667969 L 746.667969 866.667969 L 748.890625 855.554688 L 762.222656 831.109375 L 780 800 L 791.109375 777.777344 L 795.554688 777.777344 L 797.777344 766.667969 L 811.109375 742.222656 L 820 728.890625 L 833.332031 704.445312 L 846.667969 682.222656 L 853.332031 668.890625 L 862.222656 655.554688 L 873.332031 644.445312 L 886.667969 633.332031 L 908.890625 617.777344 L 911.109375 613.332031 L 933.332031 602.222656 L 926.667969 597.777344 L 922.222656 593.332031 Z M 955.554688 588.890625 "/>
<path style=" stroke:none;fill-rule:nonzero;fill:rgb(47.058824%,47.058824%,97.647059%);fill-opacity:1;" d="M 1213.332031 673.332031 L 1242.222656 677.777344 L 1246.667969 680 L 1248.890625 675.554688 L 1260 680 L 1260 686.667969 L 1224.445312 686.667969 L 1204.445312 697.777344 L 1188.890625 713.332031 L 1166.667969 746.667969 L 1151.109375 780 L 1135.554688 824.445312 L 1120 891.109375 L 1115.554688 913.332031 L 1113.332031 917.777344 L 1104.445312 975.554688 L 1095.554688 1055.554688 L 1091.109375 1086.667969 L 1091.109375 1106.667969 L 1086.667969 1140 L 1086.667969 1157.777344 L 1084.445312 1186.667969 L 1082.222656 1206.667969 L 1073.332031 1271.109375 L 1064.445312 1306.667969 L 1055.554688 1328.890625 L 1040 1360 L 1020 1380 L 991.109375 1395.554688 L 966.667969 1397.777344 L 966.667969 1402.222656 L 942.222656 1406.667969 L 917.777344 1402.222656 L 917.777344 1397.777344 L 928.890625 1393.332031 L 966.667969 1386.667969 L 984.445312 1380 L 997.777344 1371.109375 L 1015.554688 1353.332031 L 1028.890625 1328.890625 L 1048.890625 1268.890625 L 1057.777344 1211.109375 L 1066.667969 1135.554688 L 1071.109375 1091.109375 L 1082.222656 995.554688 L 1091.109375 937.777344 L 1095.554688 911.109375 L 1108.890625 853.332031 L 1117.777344 822.222656 L 1124.445312 802.222656 L 1146.667969 746.667969 L 1162.222656 722.222656 L 1180 697.777344 L 1200 680 Z M 1213.332031 673.332031 "/>
<path style=" stroke:none;fill-rule:nonzero;fill:rgb(38.039216%,87.450981%,80.392158%);fill-opacity:1;" d="M 926.667969 615.554688 L 931.109375 617.777344 L 913.332031 637.777344 L 897.777344 660 L 880 688.890625 L 855.554688 740 L 837.777344 775.554688 L 815.554688 828.890625 L 795.554688 877.777344 L 777.777344 915.554688 L 760 946.667969 L 740 980 L 720 1004.445312 L 704.445312 1020 L 682.222656 1033.332031 L 673.332031 1037.777344 L 648.890625 1037.777344 L 624.445312 1028.890625 L 608.890625 1015.554688 L 602.222656 1002.222656 L 591.109375 1000 L 591.109375 1040 L 593.332031 1066.667969 L 591.109375 1066.667969 L 586.667969 1042.222656 L 586.667969 964.445312 L 591.109375 955.554688 L 595.554688 971.109375 L 613.332031 993.332031 L 626.667969 1013.332031 L 655.554688 1022.222656 L 675.554688 1017.777344 L 700 1000 L 706.667969 993.332031 L 711.109375 993.332031 L 715.554688 984.445312 L 733.332031 962.222656 L 751.109375 933.332031 L 777.777344 882.222656 L 815.554688 802.222656 L 831.109375 766.667969 L 851.109375 724.445312 L 880 673.332031 L 902.222656 642.222656 L 922.222656 620 Z M 926.667969 615.554688 "/>
<path style=" stroke:none;fill-rule:nonzero;fill:rgb(29.411766%,64.705884%,97.254902%);fill-opacity:1;" d="M 933.332031 606.667969 L 937.777344 608.890625 L 908.890625 635.554688 L 882.222656 673.332031 L 857.777344 715.554688 L 833.332031 766.667969 L 806.667969 824.445312 L 771.109375 900 L 748.890625 942.222656 L 722.222656 980 L 711.109375 993.332031 L 680 1017.777344 L 662.222656 1024.445312 L 637.777344 1020 L 624.445312 1013.332031 L 591.109375 966.667969 L 593.332031 960 L 606.667969 980 L 624.445312 997.777344 L 640 1004.445312 L 666.667969 1004.445312 L 695.554688 988.890625 L 708.890625 977.777344 L 715.554688 968.890625 L 720 968.890625 L 724.445312 960 L 744.445312 931.109375 L 762.222656 895.554688 L 780 862.222656 L 802.222656 813.332031 L 817.777344 780 L 846.667969 722.222656 L 871.109375 677.777344 L 888.890625 651.109375 L 908.890625 628.890625 L 924.445312 613.332031 Z M 933.332031 606.667969 "/>
</g>
</svg>
