<?xml version="1.0" encoding="UTF-8"?>
<svg xmlns="http://www.w3.org/2000/svg" xmlns:xlink="http://www.w3.org/1999/xlink" width="150px" height="150px" viewBox="0 0 150 150" version="1.1">
<defs>
<filter id="alpha" filterUnits="objectBoundingBox" x="0%" y="0%" width="100%" height="100%">
  <feColorMatrix type="matrix" in="SourceGraphic" values="0 0 0 0 1 0 0 0 0 1 0 0 0 0 1 0 0 0 1 0"/>
</filter>
<mask id="mask0">
  <g filter="url(#alpha)">
<rect x="0" y="0" width="150" height="150" style="fill:rgb(0%,0%,0%);fill-opacity:0.996078;stroke:none;"/>
  </g>
</mask>
<clipPath id="clip1">
  <rect x="0" y="0" width="150" height="150"/>
</clipPath>
<g id="surface5" clip-path="url(#clip1)">
<path style=" stroke:none;fill-rule:evenodd;fill:rgb(85.09804%,63.529414%,84.705883%);fill-opacity:1;" d="M 71 43.667969 C 70.140625 44.425781 69.472656 45.3125 69 46.332031 C 68.777344 46.332031 68.554688 46.332031 68.332031 46.332031 C 67.558594 44.652344 66.667969 44.652344 65.667969 46.332031 C 65.445312 46.332031 65.222656 46.332031 65 46.332031 C 65 45.890625 65 45.445312 65 45 C 66.914062 44.246094 68.914062 43.800781 71 43.667969 Z M 71 43.667969 "/>
</g>
<mask id="mask1">
  <g filter="url(#alpha)">
<rect x="0" y="0" width="150" height="150" style="fill:rgb(0%,0%,0%);fill-opacity:0.584314;stroke:none;"/>
  </g>
</mask>
<clipPath id="clip2">
  <rect x="0" y="0" width="150" height="150"/>
</clipPath>
<g id="surface8" clip-path="url(#clip2)">
<path style=" stroke:none;fill-rule:evenodd;fill:rgb(95.294118%,60.784316%,93.725491%);fill-opacity:1;" d="M 101 59 C 101.9375 59.316406 102.382812 59.980469 102.332031 61 C 101.394531 60.683594 100.953125 60.019531 101 59 Z M 101 59 "/>
</g>
</defs>
<g id="surface1">
<use xlink:href="#surface5" mask="url(#mask0)"/>
<path style=" stroke:none;fill-rule:evenodd;fill:rgb(50.588238%,81.960785%,83.92157%);fill-opacity:1;" d="M 71 43.667969 C 71.445312 43.667969 71.886719 43.667969 72.332031 43.667969 C 71.703125 45.125 70.59375 46.015625 69 46.332031 C 69.472656 45.3125 70.140625 44.425781 71 43.667969 Z M 71 43.667969 "/>
<path style=" stroke:none;fill-rule:evenodd;fill:rgb(45.09804%,82.352942%,89.411765%);fill-opacity:1;" d="M 73.667969 43.667969 C 73.945312 43.25 74.390625 43.027344 75 43 C 77.820312 43.390625 80.488281 44.054688 83 45 C 80.988281 44.890625 78.988281 45 77 45.332031 C 75.753906 46.691406 74.421875 47.914062 73 49 C 72.554688 49.222656 72.113281 49.445312 71.667969 49.667969 C 71.691406 48.945312 71.914062 48.277344 72.332031 47.667969 C 74.441406 47.117188 75.554688 45.785156 75.667969 43.667969 C 75 43.667969 74.332031 43.667969 73.667969 43.667969 Z M 73.667969 43.667969 "/>
<path style=" stroke:none;fill-rule:evenodd;fill:rgb(31.764707%,54.11765%,99.215686%);fill-opacity:1;" d="M 85 45.667969 C 88.398438 46.363281 91.285156 47.917969 93.667969 50.332031 C 92.554688 50.332031 91.445312 50.332031 90.332031 50.332031 C 88.476562 50.621094 86.921875 51.511719 85.667969 53 C 84.648438 55.960938 83.3125 58.738281 81.667969 61.332031 C 80.828125 68.660156 79.714844 75.882812 78.332031 83 C 76.648438 87.953125 75.761719 93.0625 75.667969 98.332031 C 75.609375 98.996094 75.832031 99.550781 76.332031 100 C 74.746094 102.351562 72.527344 103.683594 69.667969 104 C 71.207031 104.332031 72.761719 104.441406 74.332031 104.332031 C 72.929688 104.980469 71.371094 105.203125 69.667969 105 C 68.601562 105.179688 67.710938 104.957031 67 104.332031 C 65.714844 103.378906 64.382812 102.378906 63 101.332031 C 65.835938 100.78125 66.390625 99.558594 64.667969 97.667969 C 63.925781 98.691406 62.925781 99.136719 61.667969 99 C 61.792969 100.070312 61.457031 100.957031 60.667969 101.667969 C 59.21875 100.992188 58.441406 99.882812 58.332031 98.332031 C 59.222656 98.332031 60.109375 98.332031 61 98.332031 C 60.796875 96.273438 61.6875 95.164062 63.667969 95 C 62.683594 89 64.019531 83.664062 67.667969 79 C 67.027344 78.125 67.136719 77.234375 68 76.332031 C 68.839844 78.875 69.285156 81.542969 69.332031 84.332031 C 70.007812 84.890625 70.785156 85.113281 71.667969 85 C 70.957031 76.066406 71.84375 67.398438 74.332031 59 C 73.667969 59 73 59 72.332031 59 C 72.265625 55.371094 73.265625 54.925781 75.332031 57.667969 C 75.820312 55.847656 75.707031 54.070312 75 52.332031 C 78.617188 51.09375 79.949219 52.425781 79 56.332031 C 80.082031 56.425781 80.859375 55.980469 81.332031 55 C 81.664062 53.460938 81.773438 51.90625 81.667969 50.332031 C 80.714844 50.28125 79.824219 50.503906 79 51 C 78.320312 50.539062 77.65625 50.09375 77 49.667969 C 77.292969 48.617188 77.957031 47.839844 79 47.332031 C 78.695312 47.058594 78.472656 46.722656 78.332031 46.332031 C 80.511719 45.675781 82.734375 45.453125 85 45.667969 Z M 85 45.667969 "/>
<path style=" stroke:none;fill-rule:evenodd;fill:rgb(96.862745%,49.019608%,61.56863%);fill-opacity:1;" d="M 65 46.332031 C 65.222656 46.332031 65.445312 46.332031 65.667969 46.332031 C 63.648438 48.574219 61.648438 50.796875 59.667969 53 C 60.6875 50.199219 62.464844 47.976562 65 46.332031 Z M 65 46.332031 "/>
<path style=" stroke:none;fill-rule:evenodd;fill:rgb(90.980393%,39.607844%,88.235295%);fill-opacity:1;" d="M 68.332031 46.332031 C 65.070312 48.476562 62.847656 51.367188 61.667969 55 C 61.027344 55.300781 60.472656 55.746094 60 56.332031 C 59.496094 59.046875 58.496094 61.492188 57 63.667969 C 56.652344 64.871094 56.207031 65.980469 55.667969 67 C 53.207031 71.121094 49.648438 72.675781 45 71.667969 C 44.464844 70.636719 44.242188 69.527344 44.332031 68.332031 C 44.332031 68.113281 44.332031 67.886719 44.332031 67.667969 C 47.898438 68.214844 50.785156 67.101562 53 64.332031 C 51.941406 66.179688 50.71875 67.957031 49.332031 69.667969 C 46.734375 67.828125 45.511719 68.273438 45.667969 71 C 50.15625 71.183594 53.265625 69.183594 55 65 C 54.835938 64.191406 54.390625 63.746094 53.667969 63.667969 C 53.890625 62.777344 54.109375 61.890625 54.332031 61 C 56.347656 59.195312 57.679688 56.972656 58.332031 54.332031 C 59 54.109375 59.445312 53.667969 59.667969 53 C 61.648438 50.796875 63.648438 48.574219 65.667969 46.332031 C 66.667969 44.652344 67.558594 44.652344 68.332031 46.332031 Z M 68.332031 46.332031 "/>
<path style=" stroke:none;fill-rule:evenodd;fill:rgb(44.705883%,84.313726%,83.92157%);fill-opacity:1;" d="M 69 47 C 66.753906 49.988281 64.753906 53.097656 63 56.332031 C 63.78125 52.421875 65.78125 49.308594 69 47 Z M 69 47 "/>
<path style=" stroke:none;fill-rule:evenodd;fill:rgb(98.431373%,78.823531%,17.647059%);fill-opacity:1;" d="M 55.667969 57.667969 C 55.039062 58.699219 54.59375 59.8125 54.332031 61 C 52.933594 62.734375 51.378906 64.402344 49.667969 66 C 47.972656 66.53125 46.417969 66.417969 45 65.667969 C 45.917969 61.828125 47.695312 58.492188 50.332031 55.667969 C 51.035156 55.765625 51.703125 55.65625 52.332031 55.332031 C 52.765625 54.261719 53.320312 53.261719 54 52.332031 C 54.449219 54.171875 55.003906 55.949219 55.667969 57.667969 Z M 55.667969 57.667969 "/>
<path style=" stroke:none;fill-rule:evenodd;fill:rgb(29.019609%,58.823532%,96.862745%);fill-opacity:1;" d="M 83 45 C 83.859375 44.84375 84.527344 45.0625 85 45.667969 C 82.734375 45.453125 80.511719 45.675781 78.332031 46.332031 C 78.472656 46.722656 78.695312 47.058594 79 47.332031 C 77.957031 47.839844 77.292969 48.617188 77 49.667969 C 75.9375 50.144531 74.9375 50.8125 74 51.667969 C 73.835938 53.109375 73.171875 54.21875 72 55 C 71.117188 58.960938 69.894531 62.742188 68.332031 66.332031 C 68.640625 64.34375 68.863281 62.34375 69 60.332031 C 70.34375 56.523438 71.675781 52.746094 73 49 C 74.421875 47.914062 75.753906 46.691406 77 45.332031 C 78.988281 45 80.988281 44.890625 83 45 Z M 83 45 "/>
<path style=" stroke:none;fill-rule:evenodd;fill:rgb(98.431373%,78.431374%,25.490198%);fill-opacity:1;" d="M 65 45 C 65 45.445312 65 45.890625 65 46.332031 C 62.464844 47.976562 60.6875 50.199219 59.667969 53 C 59.445312 53.667969 59 54.109375 58.332031 54.332031 C 57.445312 55.445312 56.554688 56.554688 55.667969 57.667969 C 55.003906 55.949219 54.449219 54.171875 54 52.332031 C 53.320312 53.261719 52.765625 54.261719 52.332031 55.332031 C 51.703125 55.65625 51.035156 55.765625 50.332031 55.667969 C 53.867188 50.371094 58.753906 46.816406 65 45 Z M 65 45 "/>
<path style=" stroke:none;fill-rule:evenodd;fill:rgb(61.960787%,69.803923%,88.235295%);fill-opacity:1;" d="M 68.332031 46.332031 C 68.554688 46.332031 68.777344 46.332031 69 46.332031 C 69 46.554688 69 46.777344 69 47 C 65.78125 49.308594 63.78125 52.421875 63 56.332031 C 62.554688 56.777344 62.109375 57.222656 61.667969 57.667969 C 61.667969 56.777344 61.667969 55.890625 61.667969 55 C 62.847656 51.367188 65.070312 48.476562 68.332031 46.332031 Z M 68.332031 46.332031 "/>
<path style=" stroke:none;fill-rule:evenodd;fill:rgb(99.215686%,25.882354%,96.078432%);fill-opacity:1;" d="M 97.667969 55.667969 C 98.625 56.90625 99.738281 58.019531 101 59 C 100.953125 60.019531 101.394531 60.683594 102.332031 61 C 102.464844 63.582031 103.019531 66.023438 104 68.332031 C 104.332031 72.996094 104.445312 77.660156 104.332031 82.332031 C 102.492188 85.417969 100.601562 88.527344 98.667969 91.667969 C 97.953125 91.148438 97.171875 91.257812 96.332031 92 C 96.136719 93.144531 96.359375 94.363281 97 95.667969 C 97 96.113281 96.777344 96.332031 96.332031 96.332031 C 95.378906 96.386719 94.492188 96.164062 93.667969 95.667969 C 93.03125 96.695312 92.808594 97.808594 93 99 C 93 99.445312 92.777344 99.667969 92.332031 99.667969 C 91.316406 99.128906 90.203125 98.683594 89 98.332031 C 88.851562 97.511719 88.40625 96.84375 87.667969 96.332031 C 88.246094 85.445312 89.023438 74.554688 90 63.667969 C 90.949219 60.804688 92.394531 58.25 94.332031 56 C 95.421875 55.671875 96.535156 55.558594 97.667969 55.667969 Z M 97.667969 55.667969 "/>
<path style=" stroke:none;fill-rule:evenodd;fill:rgb(100%,59.607846%,49.019608%);fill-opacity:1;" d="M 58.332031 54.332031 C 57.679688 56.972656 56.347656 59.195312 54.332031 61 C 54.59375 59.8125 55.039062 58.699219 55.667969 57.667969 C 56.554688 56.554688 57.445312 55.445312 58.332031 54.332031 Z M 58.332031 54.332031 "/>
<path style=" stroke:none;fill-rule:evenodd;fill:rgb(29.019609%,54.901963%,98.823529%);fill-opacity:1;" d="M 77 49.667969 C 77.65625 50.09375 78.320312 50.539062 79 51 C 79.824219 50.503906 80.714844 50.28125 81.667969 50.332031 C 81.773438 51.90625 81.664062 53.460938 81.332031 55 C 80.859375 55.980469 80.082031 56.425781 79 56.332031 C 79.949219 52.425781 78.617188 51.09375 75 52.332031 C 75.707031 54.070312 75.820312 55.847656 75.332031 57.667969 C 73.265625 54.925781 72.265625 55.371094 72.332031 59 C 73 59 73.667969 59 74.332031 59 C 71.84375 67.398438 70.957031 76.066406 71.667969 85 C 70.785156 85.113281 70.007812 84.890625 69.332031 84.332031 C 69.285156 81.542969 68.839844 78.875 68 76.332031 C 67.136719 77.234375 67.027344 78.125 67.667969 79 C 64.019531 83.664062 62.683594 89 63.667969 95 C 61.6875 95.164062 60.796875 96.273438 61 98.332031 C 60.109375 98.332031 59.222656 98.332031 58.332031 98.332031 C 58.441406 99.882812 59.21875 100.992188 60.667969 101.667969 C 61.457031 100.957031 61.792969 100.070312 61.667969 99 C 62.925781 99.136719 63.925781 98.691406 64.667969 97.667969 C 66.390625 99.558594 65.835938 100.78125 63 101.332031 C 64.382812 102.378906 65.714844 103.378906 67 104.332031 C 60.746094 103.09375 55.636719 99.984375 51.667969 95 C 51.234375 93.710938 51.011719 92.375 51 91 C 48.878906 91.214844 48.101562 90.328125 48.667969 88.332031 C 51.289062 89.652344 54.066406 89.984375 57 89.332031 C 58.191406 88.808594 59.191406 88.03125 60 87 C 64.011719 80.632812 66.789062 73.742188 68.332031 66.332031 C 69.894531 62.742188 71.117188 58.960938 72 55 C 73.171875 54.21875 73.835938 53.109375 74 51.667969 C 74.9375 50.8125 75.9375 50.144531 77 49.667969 Z M 77 49.667969 "/>
<path style=" stroke:none;fill-rule:evenodd;fill:rgb(77.254903%,53.725493%,90.980393%);fill-opacity:1;" d="M 61.667969 55 C 61.667969 55.890625 61.667969 56.777344 61.667969 57.667969 C 60.015625 58.457031 59.351562 59.792969 59.667969 61.667969 C 58.777344 62.332031 57.890625 63 57 63.667969 C 58.496094 61.492188 59.496094 59.046875 60 56.332031 C 60.472656 55.746094 61.027344 55.300781 61.667969 55 Z M 61.667969 55 "/>
<path style=" stroke:none;fill-rule:evenodd;fill:rgb(61.960787%,69.01961%,88.627452%);fill-opacity:1;" d="M 61.667969 57.667969 C 60.996094 59.027344 60.328125 60.363281 59.667969 61.667969 C 59.351562 59.792969 60.015625 58.457031 61.667969 57.667969 Z M 61.667969 57.667969 "/>
<use xlink:href="#surface8" mask="url(#mask1)"/>
<path style=" stroke:none;fill-rule:evenodd;fill:rgb(99.215686%,58.039218%,55.29412%);fill-opacity:1;" d="M 54.332031 61 C 54.109375 61.890625 53.890625 62.777344 53.667969 63.667969 C 53.222656 63.667969 53 63.890625 53 64.332031 C 50.785156 67.101562 47.898438 68.214844 44.332031 67.667969 C 44.175781 66.804688 44.398438 66.140625 45 65.667969 C 46.417969 66.417969 47.972656 66.53125 49.667969 66 C 51.378906 64.402344 52.933594 62.734375 54.332031 61 Z M 54.332031 61 "/>
<path style=" stroke:none;fill-rule:evenodd;fill:rgb(45.490196%,83.92157%,83.92157%);fill-opacity:1;" d="M 63 56.332031 C 61.535156 60.550781 59.980469 64.773438 58.332031 69 C 56.429688 71.914062 54.207031 74.578125 51.667969 77 C 53.386719 74.667969 54.945312 72.222656 56.332031 69.667969 C 57.800781 67.171875 58.910156 64.507812 59.667969 61.667969 C 60.328125 60.363281 60.996094 59.027344 61.667969 57.667969 C 62.109375 57.222656 62.554688 56.777344 63 56.332031 Z M 63 56.332031 "/>
<path style=" stroke:none;fill-rule:evenodd;fill:rgb(27.450982%,77.254903%,89.803922%);fill-opacity:1;" d="M 67.667969 60.332031 C 67.035156 64.660156 65.699219 68.660156 63.667969 72.332031 C 64.339844 68.523438 65.230469 64.746094 66.332031 61 C 66.636719 60.46875 67.082031 60.246094 67.667969 60.332031 Z M 67.667969 60.332031 "/>
<path style=" stroke:none;fill-rule:evenodd;fill:rgb(27.450982%,85.882354%,86.274511%);fill-opacity:1;" d="M 68.332031 55.667969 C 68.21875 57.242188 67.996094 58.796875 67.667969 60.332031 C 67.082031 60.246094 66.636719 60.46875 66.332031 61 C 65.230469 64.746094 64.339844 68.523438 63.667969 72.332031 C 63.222656 73 62.777344 73.667969 62.332031 74.332031 C 61.429688 75.058594 60.761719 75.949219 60.332031 77 C 61.226562 72.210938 62.449219 67.546875 64 63 C 65.667969 60.585938 67.113281 58.140625 68.332031 55.667969 Z M 68.332031 55.667969 "/>
<path style=" stroke:none;fill-rule:evenodd;fill:rgb(96.862745%,31.764707%,92.941177%);fill-opacity:1;" d="M 53.667969 63.667969 C 54.390625 63.746094 54.835938 64.191406 55 65 C 53.265625 69.183594 50.15625 71.183594 45.667969 71 C 45.511719 68.273438 46.734375 67.828125 49.332031 69.667969 C 50.71875 67.957031 51.941406 66.179688 53 64.332031 C 53 63.890625 53.222656 63.667969 53.667969 63.667969 Z M 53.667969 63.667969 "/>
<path style=" stroke:none;fill-rule:evenodd;fill:rgb(27.843139%,70.980394%,93.333334%);fill-opacity:1;" d="M 73 49 C 71.675781 52.746094 70.34375 56.523438 69 60.332031 C 66.808594 66.625 64.699219 73.066406 62.667969 79.667969 C 62.195312 80.253906 61.640625 80.699219 61 81 C 61.445312 78.777344 61.890625 76.554688 62.332031 74.332031 C 62.777344 73.667969 63.222656 73 63.667969 72.332031 C 65.699219 68.660156 67.035156 64.660156 67.667969 60.332031 C 67.996094 58.796875 68.21875 57.242188 68.332031 55.667969 C 69.582031 53.847656 70.691406 51.847656 71.667969 49.667969 C 72.113281 49.445312 72.554688 49.222656 73 49 Z M 73 49 "/>
<path style=" stroke:none;fill-rule:evenodd;fill:rgb(41.176471%,50.980395%,98.823529%);fill-opacity:1;" d="M 90.332031 50.332031 C 89.023438 51.535156 87.800781 52.871094 86.667969 54.332031 C 85.113281 57.351562 83.667969 60.460938 82.332031 63.667969 C 80.464844 75.183594 78.90625 86.742188 77.667969 98.332031 C 77 98.332031 76.332031 98.332031 75.667969 98.332031 C 75.761719 93.0625 76.648438 87.953125 78.332031 83 C 79.714844 75.882812 80.828125 68.660156 81.667969 61.332031 C 83.3125 58.738281 84.648438 55.960938 85.667969 53 C 86.921875 51.511719 88.476562 50.621094 90.332031 50.332031 Z M 90.332031 50.332031 "/>
<path style=" stroke:none;fill-rule:evenodd;fill:rgb(67.058825%,66.274512%,88.627452%);fill-opacity:1;" d="M 59.667969 61.667969 C 58.910156 64.507812 57.800781 67.171875 56.332031 69.667969 C 54.488281 71.441406 52.710938 73.332031 51 75.332031 C 48.820312 75.859375 46.820312 75.523438 45 74.332031 C 44.777344 73.667969 44.332031 73.222656 43.667969 73 C 43.464844 71.292969 43.6875 69.738281 44.332031 68.332031 C 44.242188 69.527344 44.464844 70.636719 45 71.667969 C 45.609375 73.007812 46.722656 73.675781 48.332031 73.667969 C 52.007812 72.824219 54.449219 70.601562 55.667969 67 C 56.207031 65.980469 56.652344 64.871094 57 63.667969 C 57.890625 63 58.777344 62.332031 59.667969 61.667969 Z M 59.667969 61.667969 "/>
<path style=" stroke:none;fill-rule:evenodd;fill:rgb(79.607844%,50.980395%,91.764706%);fill-opacity:1;" d="M 55.667969 67 C 54.449219 70.601562 52.007812 72.824219 48.332031 73.667969 C 46.722656 73.675781 45.609375 73.007812 45 71.667969 C 49.648438 72.675781 53.207031 71.121094 55.667969 67 Z M 55.667969 67 "/>
<path style=" stroke:none;fill-rule:evenodd;fill:rgb(52.549022%,78.039217%,85.09804%);fill-opacity:1;" d="M 56.332031 69.667969 C 54.945312 72.222656 53.386719 74.667969 51.667969 77 C 48.742188 77.617188 46.523438 76.726562 45 74.332031 C 46.820312 75.523438 48.820312 75.859375 51 75.332031 C 52.710938 73.332031 54.488281 71.441406 56.332031 69.667969 Z M 56.332031 69.667969 "/>
<path style=" stroke:none;fill-rule:evenodd;fill:rgb(49.803922%,47.843137%,98.431373%);fill-opacity:1;" d="M 90.332031 50.332031 C 91.445312 50.332031 92.554688 50.332031 93.667969 50.332031 C 94.554688 50.777344 95.222656 51.445312 95.667969 52.332031 C 94.265625 52.347656 93.042969 51.902344 92 51 C 91.144531 51.300781 90.367188 51.746094 89.667969 52.332031 C 87.851562 55.351562 86.296875 58.460938 85 61.667969 C 83.453125 63.523438 82.675781 65.746094 82.667969 68.332031 C 82.160156 77.75 81.050781 87.085938 79.332031 96.332031 C 78.828125 99.804688 77.160156 102.46875 74.332031 104.332031 C 72.761719 104.441406 71.207031 104.332031 69.667969 104 C 72.527344 103.683594 74.746094 102.351562 76.332031 100 C 75.832031 99.550781 75.609375 98.996094 75.667969 98.332031 C 76.332031 98.332031 77 98.332031 77.667969 98.332031 C 78.90625 86.742188 80.464844 75.183594 82.332031 63.667969 C 83.667969 60.460938 85.113281 57.351562 86.667969 54.332031 C 87.800781 52.871094 89.023438 51.535156 90.332031 50.332031 Z M 90.332031 50.332031 "/>
<path style=" stroke:none;fill-rule:evenodd;fill:rgb(93.725491%,45.09804%,90.588236%);fill-opacity:1;" d="M 102.332031 61 C 105.839844 67.863281 106.507812 74.972656 104.332031 82.332031 C 104.445312 77.660156 104.332031 72.996094 104 68.332031 C 103.019531 66.023438 102.464844 63.582031 102.332031 61 Z M 102.332031 61 "/>
<path style=" stroke:none;fill-rule:evenodd;fill:rgb(65.098041%,41.568628%,98.039216%);fill-opacity:1;" d="M 95.667969 52.332031 C 96.332031 52.554688 96.777344 53 97 53.667969 C 92.5 51.804688 89.5 53.136719 88 57.667969 C 87.417969 60.65625 86.53125 63.542969 85.332031 66.332031 C 84.792969 77.253906 83.902344 88.144531 82.667969 99 C 81.816406 101.292969 80.371094 103.070312 78.332031 104.332031 C 77.886719 104.332031 77.445312 104.332031 77 104.332031 C 77.589844 103.078125 78.589844 102.1875 80 101.667969 C 80.191406 100.03125 80.636719 98.476562 81.332031 97 C 81.710938 85.105469 82.933594 73.328125 85 61.667969 C 86.296875 58.460938 87.851562 55.351562 89.667969 52.332031 C 90.367188 51.746094 91.144531 51.300781 92 51 C 93.042969 51.902344 94.265625 52.347656 95.667969 52.332031 Z M 95.667969 52.332031 "/>
<path style=" stroke:none;fill-rule:evenodd;fill:rgb(56.862748%,45.09804%,98.039216%);fill-opacity:1;" d="M 85 61.667969 C 82.933594 73.328125 81.710938 85.105469 81.332031 97 C 80.636719 98.476562 80.191406 100.03125 80 101.667969 C 78.589844 102.1875 77.589844 103.078125 77 104.332031 C 76.113281 104.332031 75.222656 104.332031 74.332031 104.332031 C 77.160156 102.46875 78.828125 99.804688 79.332031 96.332031 C 81.050781 87.085938 82.160156 77.75 82.667969 68.332031 C 82.675781 65.746094 83.453125 63.523438 85 61.667969 Z M 85 61.667969 "/>
<path style=" stroke:none;fill-rule:evenodd;fill:rgb(80.392158%,35.294119%,96.862745%);fill-opacity:1;" d="M 97 53.667969 C 98.980469 54.960938 100.3125 56.738281 101 59 C 99.738281 58.019531 98.625 56.90625 97.667969 55.667969 C 95.082031 54.460938 92.972656 55.125 91.332031 57.667969 C 88.699219 64.53125 86.921875 71.640625 86 79 C 85.757812 83.894531 85.425781 88.785156 85 93.667969 C 86.664062 96.777344 85.886719 98.996094 82.667969 100.332031 C 82.460938 101.175781 82.128906 101.957031 81.667969 102.667969 C 81.820312 102.933594 82.042969 103.042969 82.332031 103 C 81.339844 104.1875 80.007812 104.628906 78.332031 104.332031 C 80.371094 103.070312 81.816406 101.292969 82.667969 99 C 83.902344 88.144531 84.792969 77.253906 85.332031 66.332031 C 86.53125 63.542969 87.417969 60.65625 88 57.667969 C 89.5 53.136719 92.5 51.804688 97 53.667969 Z M 97 53.667969 "/>
<path style=" stroke:none;fill-rule:evenodd;fill:rgb(28.235295%,95.294118%,81.568629%);fill-opacity:1;" d="M 72.332031 43.667969 C 72.777344 43.667969 73.222656 43.667969 73.667969 43.667969 C 74.332031 43.667969 75 43.667969 75.667969 43.667969 C 75.554688 45.785156 74.441406 47.117188 72.332031 47.667969 C 71.914062 48.277344 71.691406 48.945312 71.667969 49.667969 C 70.691406 51.847656 69.582031 53.847656 68.332031 55.667969 C 67.113281 58.140625 65.667969 60.585938 64 63 C 62.449219 67.546875 61.226562 72.210938 60.332031 77 C 59.773438 77.226562 59.550781 77.671875 59.667969 78.332031 C 57.710938 79.398438 55.929688 80.730469 54.332031 82.332031 C 52.371094 83.101562 50.371094 83.214844 48.332031 82.667969 C 45.699219 81.515625 44.8125 79.628906 45.667969 77 C 47.816406 78.6875 49.816406 78.6875 51.667969 77 C 54.207031 74.578125 56.429688 71.914062 58.332031 69 C 59.980469 64.773438 61.535156 60.550781 63 56.332031 C 64.753906 53.097656 66.753906 49.988281 69 47 C 69 46.777344 69 46.554688 69 46.332031 C 70.59375 46.015625 71.703125 45.125 72.332031 43.667969 Z M 72.332031 43.667969 "/>
<path style=" stroke:none;fill-rule:evenodd;fill:rgb(25.490198%,98.823529%,80.392158%);fill-opacity:1;" d="M 58.332031 69 C 59.351562 68.550781 60.238281 67.882812 61 67 C 61.222656 67.332031 61.445312 67.667969 61.667969 68 C 60.414062 70.925781 59.414062 73.925781 58.667969 77 C 56.992188 78.894531 55.105469 80.5625 53 82 C 51.65625 81.898438 50.320312 81.566406 49 81 C 48.855469 80.214844 49.078125 79.550781 49.667969 79 C 50.492188 79.496094 51.378906 79.71875 52.332031 79.667969 C 52.332031 79 52.332031 78.332031 52.332031 77.667969 C 54.796875 77.535156 56.015625 76.203125 56 73.667969 C 57.835938 72.660156 58.613281 71.105469 58.332031 69 Z M 58.332031 69 "/>
<path style=" stroke:none;fill-rule:evenodd;fill:rgb(31.764707%,89.411765%,84.313726%);fill-opacity:1;" d="M 43.667969 73 C 44.332031 73.222656 44.777344 73.667969 45 74.332031 C 46.523438 76.726562 48.742188 77.617188 51.667969 77 C 49.816406 78.6875 47.816406 78.6875 45.667969 77 C 44.8125 79.628906 45.699219 81.515625 48.332031 82.667969 C 50.371094 83.214844 52.371094 83.101562 54.332031 82.332031 C 55.929688 80.730469 57.710938 79.398438 59.667969 78.332031 C 58.289062 82.476562 55.507812 84.921875 51.332031 85.667969 C 47.921875 85.246094 45.585938 83.46875 44.332031 80.332031 C 43.304688 77.945312 43.082031 75.5 43.667969 73 Z M 43.667969 73 "/>
<path style=" stroke:none;fill-rule:evenodd;fill:rgb(27.843139%,70.980394%,92.941177%);fill-opacity:1;" d="M 61 81 C 59.804688 86.824219 56.25 89.160156 50.332031 88 C 49.722656 87.816406 49.277344 87.480469 49 87 C 52.933594 87.675781 56.378906 86.785156 59.332031 84.332031 C 59.582031 83.007812 60.136719 81.894531 61 81 Z M 61 81 "/>
<path style=" stroke:none;fill-rule:evenodd;fill:rgb(31.37255%,63.137257%,95.294118%);fill-opacity:1;" d="M 69 60.332031 C 68.863281 62.34375 68.640625 64.34375 68.332031 66.332031 C 66.789062 73.742188 64.011719 80.632812 60 87 C 59.191406 88.03125 58.191406 88.808594 57 89.332031 C 54.066406 89.984375 51.289062 89.652344 48.667969 88.332031 C 48.101562 90.328125 48.878906 91.214844 51 91 C 51.011719 92.375 51.234375 93.710938 51.667969 95 C 49.109375 92.882812 47.332031 90.214844 46.332031 87 C 47.109375 85.320312 48 85.320312 49 87 C 49.277344 87.480469 49.722656 87.816406 50.332031 88 C 56.25 89.160156 59.804688 86.824219 61 81 C 61.640625 80.699219 62.195312 80.253906 62.667969 79.667969 C 64.699219 73.066406 66.808594 66.625 69 60.332031 Z M 69 60.332031 "/>
<path style=" stroke:none;fill-rule:evenodd;fill:rgb(30.588236%,78.039217%,89.411765%);fill-opacity:1;" d="M 62.332031 74.332031 C 61.890625 76.554688 61.445312 78.777344 61 81 C 60.136719 81.894531 59.582031 83.007812 59.332031 84.332031 C 56.378906 86.785156 52.933594 87.675781 49 87 C 48 85.320312 47.109375 85.320312 46.332031 87 C 45.148438 84.996094 44.480469 82.773438 44.332031 80.332031 C 45.585938 83.46875 47.921875 85.246094 51.332031 85.667969 C 55.507812 84.921875 58.289062 82.476562 59.667969 78.332031 C 59.550781 77.671875 59.773438 77.226562 60.332031 77 C 60.761719 75.949219 61.429688 75.058594 62.332031 74.332031 Z M 62.332031 74.332031 "/>
<path style=" stroke:none;fill-rule:evenodd;fill:rgb(94.901961%,38.431373%,91.37255%);fill-opacity:1;" d="M 104.332031 82.332031 C 103.261719 87.589844 100.816406 92.035156 97 95.667969 C 96.359375 94.363281 96.136719 93.144531 96.332031 92 C 97.171875 91.257812 97.953125 91.148438 98.667969 91.667969 C 100.601562 88.527344 102.492188 85.417969 104.332031 82.332031 Z M 104.332031 82.332031 "/>
<path style=" stroke:none;fill-rule:evenodd;fill:rgb(95.294118%,40.784314%,91.37255%);fill-opacity:1;" d="M 96.332031 96.332031 C 95.609375 97.726562 94.5 98.613281 93 99 C 92.808594 97.808594 93.03125 96.695312 93.667969 95.667969 C 94.492188 96.164062 95.378906 96.386719 96.332031 96.332031 Z M 96.332031 96.332031 "/>
<path style=" stroke:none;fill-rule:evenodd;fill:rgb(90.196079%,30.588236%,96.470588%);fill-opacity:1;" d="M 97.667969 55.667969 C 96.535156 55.558594 95.421875 55.671875 94.332031 56 C 92.394531 58.25 90.949219 60.804688 90 63.667969 C 89.023438 74.554688 88.246094 85.445312 87.667969 96.332031 C 88.40625 96.84375 88.851562 97.511719 89 98.332031 C 87.046875 99.089844 86.824219 99.980469 88.332031 101 C 86.898438 101.335938 85.785156 102 85 103 C 84.113281 103 83.222656 103 82.332031 103 C 82.042969 103.042969 81.820312 102.933594 81.667969 102.667969 C 82.128906 101.957031 82.460938 101.175781 82.667969 100.332031 C 85.886719 98.996094 86.664062 96.777344 85 93.667969 C 85.425781 88.785156 85.757812 83.894531 86 79 C 86.921875 71.640625 88.699219 64.53125 91.332031 57.667969 C 92.972656 55.125 95.082031 54.460938 97.667969 55.667969 Z M 97.667969 55.667969 "/>
<path style=" stroke:none;fill-rule:evenodd;fill:rgb(94.901961%,40.392157%,92.54902%);fill-opacity:1;" d="M 89 98.332031 C 90.203125 98.683594 91.316406 99.128906 92.332031 99.667969 C 90.214844 101.503906 87.769531 102.839844 85 103.667969 C 85 103.445312 85 103.222656 85 103 C 85.785156 102 86.898438 101.335938 88.332031 101 C 86.824219 99.980469 87.046875 99.089844 89 98.332031 Z M 89 98.332031 "/>
<path style=" stroke:none;fill-rule:evenodd;fill:rgb(80.000001%,56.470591%,92.941177%);fill-opacity:1;" d="M 82.332031 103 C 83.222656 103 84.113281 103 85 103 C 85 103.222656 85 103.445312 85 103.667969 C 79.9375 105.597656 74.828125 106.042969 69.667969 105 C 71.371094 105.203125 72.929688 104.980469 74.332031 104.332031 C 75.222656 104.332031 76.113281 104.332031 77 104.332031 C 77.445312 104.332031 77.886719 104.332031 78.332031 104.332031 C 80.007812 104.628906 81.339844 104.1875 82.332031 103 Z M 82.332031 103 "/>
</g>
</svg>
