<?xml version="1.0" encoding="UTF-8"?>
<svg xmlns="http://www.w3.org/2000/svg" xmlns:xlink="http://www.w3.org/1999/xlink" width="200px" height="200px" viewBox="0 0 200 200" version="1.1">
<defs>
<filter id="alpha" filterUnits="objectBoundingBox" x="0%" y="0%" width="100%" height="100%">
  <feColorMatrix type="matrix" in="SourceGraphic" values="0 0 0 0 1 0 0 0 0 1 0 0 0 0 1 0 0 0 1 0"/>
</filter>
<mask id="mask0">
  <g filter="url(#alpha)">
<rect x="0" y="0" width="200" height="200" style="fill:rgb(0%,0%,0%);fill-opacity:0.996078;stroke:none;"/>
  </g>
</mask>
<clipPath id="clip1">
  <rect x="0" y="0" width="200" height="200"/>
</clipPath>
<g id="surface5" clip-path="url(#clip1)">
<path style=" stroke:none;fill-rule:evenodd;fill:rgb(85.09804%,63.529414%,84.705883%);fill-opacity:1;" d="M 94.667969 58.222656 C 93.519531 59.234375 92.632812 60.417969 92 61.777344 C 91.703125 61.777344 91.40625 61.777344 91.109375 61.777344 C 90.074219 59.535156 88.890625 59.535156 87.554688 61.777344 C 87.257812 61.777344 86.964844 61.777344 86.667969 61.777344 C 86.667969 61.183594 86.667969 60.59375 86.667969 60 C 89.21875 58.992188 91.882812 58.398438 94.667969 58.222656 Z M 94.667969 58.222656 "/>
</g>
<mask id="mask1">
  <g filter="url(#alpha)">
<rect x="0" y="0" width="200" height="200" style="fill:rgb(0%,0%,0%);fill-opacity:0.584314;stroke:none;"/>
  </g>
</mask>
<clipPath id="clip2">
  <rect x="0" y="0" width="200" height="200"/>
</clipPath>
<g id="surface8" clip-path="url(#clip2)">
<path style=" stroke:none;fill-rule:evenodd;fill:rgb(95.294118%,60.784316%,93.725491%);fill-opacity:1;" d="M 134.667969 78.667969 C 135.917969 79.085938 136.507812 79.976562 136.445312 81.332031 C 135.195312 80.914062 134.601562 80.023438 134.667969 78.667969 Z M 134.667969 78.667969 "/>
</g>
</defs>
<g id="surface1">
<use xlink:href="#surface5" mask="url(#mask0)"/>
<path style=" stroke:none;fill-rule:evenodd;fill:rgb(50.588238%,81.960785%,83.92157%);fill-opacity:1;" d="M 94.667969 58.222656 C 95.257812 58.222656 95.851562 58.222656 96.445312 58.222656 C 95.605469 60.167969 94.125 61.351562 92 61.777344 C 92.632812 60.417969 93.519531 59.234375 94.667969 58.222656 Z M 94.667969 58.222656 "/>
<path style=" stroke:none;fill-rule:evenodd;fill:rgb(45.09804%,82.352942%,89.411765%);fill-opacity:1;" d="M 98.222656 58.222656 C 98.59375 57.667969 99.1875 57.371094 100 57.332031 C 103.761719 57.851562 107.316406 58.742188 110.667969 60 C 107.984375 59.855469 105.316406 60 102.667969 60.445312 C 101.003906 62.257812 99.226562 63.886719 97.332031 65.332031 C 96.742188 65.628906 96.148438 65.925781 95.554688 66.222656 C 95.589844 65.257812 95.886719 64.371094 96.445312 63.554688 C 99.257812 62.824219 100.738281 61.046875 100.890625 58.222656 C 100 58.222656 99.109375 58.222656 98.222656 58.222656 Z M 98.222656 58.222656 "/>
<path style=" stroke:none;fill-rule:evenodd;fill:rgb(31.764707%,54.11765%,99.215686%);fill-opacity:1;" d="M 113.332031 60.890625 C 117.863281 61.820312 121.714844 63.894531 124.890625 67.109375 C 123.40625 67.109375 121.925781 67.109375 120.445312 67.109375 C 117.96875 67.496094 115.894531 68.679688 114.222656 70.667969 C 112.863281 74.613281 111.085938 78.320312 108.890625 81.777344 C 107.769531 91.546875 106.289062 101.175781 104.445312 110.667969 C 102.199219 117.269531 101.011719 124.085938 100.890625 131.109375 C 100.8125 131.996094 101.109375 132.738281 101.777344 133.332031 C 99.664062 136.464844 96.703125 138.246094 92.890625 138.667969 C 94.941406 139.109375 97.015625 139.257812 99.109375 139.109375 C 97.238281 139.972656 95.164062 140.269531 92.890625 140 C 91.46875 140.238281 90.28125 139.941406 89.332031 139.109375 C 87.621094 137.839844 85.84375 136.503906 84 135.109375 C 87.777344 134.375 88.519531 132.746094 86.222656 130.222656 C 85.234375 131.589844 83.902344 132.179688 82.222656 132 C 82.390625 133.425781 81.945312 134.609375 80.890625 135.554688 C 78.957031 134.660156 77.921875 133.175781 77.777344 131.109375 C 78.964844 131.109375 80.148438 131.109375 81.332031 131.109375 C 81.0625 128.367188 82.25 126.886719 84.890625 126.667969 C 83.578125 118.664062 85.359375 111.554688 90.222656 105.332031 C 89.367188 104.167969 89.515625 102.980469 90.667969 101.777344 C 91.789062 105.167969 92.382812 108.722656 92.445312 112.445312 C 93.34375 113.1875 94.378906 113.484375 95.554688 113.332031 C 94.605469 101.417969 95.792969 89.863281 99.109375 78.667969 C 98.222656 78.667969 97.332031 78.667969 96.445312 78.667969 C 96.351562 73.828125 97.683594 73.238281 100.445312 76.890625 C 101.089844 74.460938 100.945312 72.089844 100 69.777344 C 104.824219 68.125 106.601562 69.902344 105.332031 75.109375 C 106.777344 75.234375 107.8125 74.644531 108.445312 73.332031 C 108.886719 71.28125 109.035156 69.207031 108.890625 67.109375 C 107.617188 67.039062 106.433594 67.335938 105.332031 68 C 104.429688 67.382812 103.539062 66.792969 102.667969 66.222656 C 103.054688 64.824219 103.945312 63.785156 105.332031 63.109375 C 104.925781 62.742188 104.628906 62.296875 104.445312 61.777344 C 107.347656 60.902344 110.3125 60.605469 113.332031 60.890625 Z M 113.332031 60.890625 "/>
<path style=" stroke:none;fill-rule:evenodd;fill:rgb(96.862745%,49.019608%,61.56863%);fill-opacity:1;" d="M 86.667969 61.777344 C 86.964844 61.777344 87.257812 61.777344 87.554688 61.777344 C 84.863281 64.761719 82.195312 67.726562 79.554688 70.667969 C 80.917969 66.929688 83.289062 63.964844 86.667969 61.777344 Z M 86.667969 61.777344 "/>
<path style=" stroke:none;fill-rule:evenodd;fill:rgb(90.980393%,39.607844%,88.235295%);fill-opacity:1;" d="M 91.109375 61.777344 C 86.761719 64.636719 83.796875 68.488281 82.222656 73.332031 C 81.371094 73.734375 80.628906 74.328125 80 75.109375 C 79.328125 78.730469 77.996094 81.988281 76 84.890625 C 75.535156 86.492188 74.941406 87.976562 74.222656 89.332031 C 70.941406 94.828125 66.199219 96.902344 60 95.554688 C 59.289062 94.183594 58.992188 92.703125 59.109375 91.109375 C 59.109375 90.816406 59.109375 90.519531 59.109375 90.222656 C 63.863281 90.953125 67.714844 89.472656 70.667969 85.777344 C 69.253906 88.238281 67.625 90.609375 65.777344 92.890625 C 62.3125 90.4375 60.683594 91.03125 60.890625 94.667969 C 66.875 94.910156 71.019531 92.246094 73.332031 86.667969 C 73.113281 85.589844 72.519531 84.996094 71.554688 84.890625 C 71.851562 83.703125 72.148438 82.519531 72.445312 81.332031 C 75.128906 78.929688 76.90625 75.964844 77.777344 72.445312 C 78.667969 72.148438 79.257812 71.554688 79.554688 70.667969 C 82.195312 67.726562 84.863281 64.761719 87.554688 61.777344 C 88.890625 59.535156 90.074219 59.535156 91.109375 61.777344 Z M 91.109375 61.777344 "/>
<path style=" stroke:none;fill-rule:evenodd;fill:rgb(44.705883%,84.313726%,83.92157%);fill-opacity:1;" d="M 92 62.667969 C 89.003906 66.652344 86.335938 70.800781 84 75.109375 C 85.042969 69.894531 87.710938 65.746094 92 62.667969 Z M 92 62.667969 "/>
<path style=" stroke:none;fill-rule:evenodd;fill:rgb(98.431373%,78.823531%,17.647059%);fill-opacity:1;" d="M 74.222656 76.890625 C 73.386719 78.265625 72.792969 79.746094 72.445312 81.332031 C 70.578125 83.648438 68.503906 85.871094 66.222656 88 C 63.964844 88.707031 61.890625 88.558594 60 87.554688 C 61.226562 82.4375 63.59375 77.992188 67.109375 74.222656 C 68.046875 74.355469 68.933594 74.207031 69.777344 73.777344 C 70.351562 72.347656 71.09375 71.015625 72 69.777344 C 72.597656 72.230469 73.339844 74.601562 74.222656 76.890625 Z M 74.222656 76.890625 "/>
<path style=" stroke:none;fill-rule:evenodd;fill:rgb(29.019609%,58.823532%,96.862745%);fill-opacity:1;" d="M 110.667969 60 C 111.8125 59.789062 112.703125 60.085938 113.332031 60.890625 C 110.3125 60.605469 107.347656 60.902344 104.445312 61.777344 C 104.628906 62.296875 104.925781 62.742188 105.332031 63.109375 C 103.945312 63.785156 103.054688 64.824219 102.667969 66.222656 C 101.253906 66.859375 99.917969 67.75 98.667969 68.890625 C 98.449219 70.8125 97.558594 72.292969 96 73.332031 C 94.824219 78.617188 93.195312 83.652344 91.109375 88.445312 C 91.523438 85.792969 91.820312 83.125 92 80.445312 C 93.792969 75.367188 95.570312 70.328125 97.332031 65.332031 C 99.226562 63.886719 101.003906 62.257812 102.667969 60.445312 C 105.316406 60 107.984375 59.855469 110.667969 60 Z M 110.667969 60 "/>
<path style=" stroke:none;fill-rule:evenodd;fill:rgb(98.431373%,78.431374%,25.490198%);fill-opacity:1;" d="M 86.667969 60 C 86.667969 60.59375 86.667969 61.183594 86.667969 61.777344 C 83.289062 63.964844 80.917969 66.929688 79.554688 70.667969 C 79.257812 71.554688 78.667969 72.148438 77.777344 72.445312 C 76.59375 73.925781 75.40625 75.40625 74.222656 76.890625 C 73.339844 74.601562 72.597656 72.230469 72 69.777344 C 71.09375 71.015625 70.351562 72.347656 69.777344 73.777344 C 68.933594 74.207031 68.046875 74.355469 67.109375 74.222656 C 71.820312 67.160156 78.339844 62.421875 86.667969 60 Z M 86.667969 60 "/>
<path style=" stroke:none;fill-rule:evenodd;fill:rgb(61.960787%,69.803923%,88.235295%);fill-opacity:1;" d="M 91.109375 61.777344 C 91.40625 61.777344 91.703125 61.777344 92 61.777344 C 92 62.074219 92 62.371094 92 62.667969 C 87.710938 65.746094 85.042969 69.894531 84 75.109375 C 83.40625 75.703125 82.816406 76.296875 82.222656 76.890625 C 82.222656 75.703125 82.222656 74.519531 82.222656 73.332031 C 83.796875 68.488281 86.761719 64.636719 91.109375 61.777344 Z M 91.109375 61.777344 "/>
<path style=" stroke:none;fill-rule:evenodd;fill:rgb(99.215686%,25.882354%,96.078432%);fill-opacity:1;" d="M 130.222656 74.222656 C 131.5 75.875 132.980469 77.355469 134.667969 78.667969 C 134.601562 80.023438 135.195312 80.914062 136.445312 81.332031 C 136.621094 84.773438 137.359375 88.03125 138.667969 91.109375 C 139.109375 97.328125 139.257812 103.546875 139.109375 109.777344 C 136.65625 113.890625 134.136719 118.039062 131.554688 122.222656 C 130.601562 121.527344 129.5625 121.675781 128.445312 122.667969 C 128.183594 124.191406 128.476562 125.820312 129.332031 127.554688 C 129.332031 128.148438 129.039062 128.445312 128.445312 128.445312 C 127.171875 128.515625 125.988281 128.21875 124.890625 127.554688 C 124.042969 128.929688 123.746094 130.410156 124 132 C 124 132.59375 123.703125 132.890625 123.109375 132.890625 C 121.753906 132.167969 120.273438 131.578125 118.667969 131.109375 C 118.46875 130.011719 117.878906 129.125 116.890625 128.445312 C 117.660156 113.925781 118.699219 99.40625 120 84.890625 C 121.265625 81.074219 123.191406 77.664062 125.777344 74.667969 C 127.230469 74.226562 128.710938 74.078125 130.222656 74.222656 Z M 130.222656 74.222656 "/>
<path style=" stroke:none;fill-rule:evenodd;fill:rgb(100%,59.607846%,49.019608%);fill-opacity:1;" d="M 77.777344 72.445312 C 76.90625 75.964844 75.128906 78.929688 72.445312 81.332031 C 72.792969 79.746094 73.386719 78.265625 74.222656 76.890625 C 75.40625 75.40625 76.59375 73.925781 77.777344 72.445312 Z M 77.777344 72.445312 "/>
<path style=" stroke:none;fill-rule:evenodd;fill:rgb(29.019609%,54.901963%,98.823529%);fill-opacity:1;" d="M 102.667969 66.222656 C 103.539062 66.792969 104.429688 67.382812 105.332031 68 C 106.433594 67.335938 107.617188 67.039062 108.890625 67.109375 C 109.035156 69.207031 108.886719 71.28125 108.445312 73.332031 C 107.8125 74.644531 106.777344 75.234375 105.332031 75.109375 C 106.601562 69.902344 104.824219 68.125 100 69.777344 C 100.945312 72.089844 101.089844 74.460938 100.445312 76.890625 C 97.683594 73.238281 96.351562 73.828125 96.445312 78.667969 C 97.332031 78.667969 98.222656 78.667969 99.109375 78.667969 C 95.792969 89.863281 94.605469 101.417969 95.554688 113.332031 C 94.378906 113.484375 93.34375 113.1875 92.445312 112.445312 C 92.382812 108.722656 91.789062 105.167969 90.667969 101.777344 C 89.515625 102.980469 89.367188 104.167969 90.222656 105.332031 C 85.359375 111.554688 83.578125 118.664062 84.890625 126.667969 C 82.25 126.886719 81.0625 128.367188 81.332031 131.109375 C 80.148438 131.109375 78.964844 131.109375 77.777344 131.109375 C 77.921875 133.175781 78.957031 134.660156 80.890625 135.554688 C 81.945312 134.609375 82.390625 133.425781 82.222656 132 C 83.902344 132.179688 85.234375 131.589844 86.222656 130.222656 C 88.519531 132.746094 87.777344 134.375 84 135.109375 C 85.84375 136.503906 87.621094 137.839844 89.332031 139.109375 C 80.996094 137.460938 74.179688 133.3125 68.890625 126.667969 C 68.3125 124.945312 68.015625 123.167969 68 121.332031 C 65.171875 121.621094 64.136719 120.4375 64.890625 117.777344 C 68.386719 119.535156 72.089844 119.980469 76 119.109375 C 77.585938 118.414062 78.921875 117.375 80 116 C 85.351562 107.507812 89.054688 98.324219 91.109375 88.445312 C 93.195312 83.652344 94.824219 78.617188 96 73.332031 C 97.558594 72.292969 98.449219 70.8125 98.667969 68.890625 C 99.917969 67.75 101.253906 66.859375 102.667969 66.222656 Z M 102.667969 66.222656 "/>
<path style=" stroke:none;fill-rule:evenodd;fill:rgb(77.254903%,53.725493%,90.980393%);fill-opacity:1;" d="M 82.222656 73.332031 C 82.222656 74.519531 82.222656 75.703125 82.222656 76.890625 C 80.023438 77.945312 79.132812 79.722656 79.554688 82.222656 C 78.371094 83.109375 77.183594 84 76 84.890625 C 77.996094 81.988281 79.328125 78.730469 80 75.109375 C 80.628906 74.328125 81.371094 73.734375 82.222656 73.332031 Z M 82.222656 73.332031 "/>
<path style=" stroke:none;fill-rule:evenodd;fill:rgb(61.960787%,69.01961%,88.627452%);fill-opacity:1;" d="M 82.222656 76.890625 C 81.324219 78.707031 80.4375 80.484375 79.554688 82.222656 C 79.132812 79.722656 80.023438 77.945312 82.222656 76.890625 Z M 82.222656 76.890625 "/>
<use xlink:href="#surface8" mask="url(#mask1)"/>
<path style=" stroke:none;fill-rule:evenodd;fill:rgb(99.215686%,58.039218%,55.29412%);fill-opacity:1;" d="M 72.445312 81.332031 C 72.148438 82.519531 71.851562 83.703125 71.554688 84.890625 C 70.964844 84.890625 70.667969 85.183594 70.667969 85.777344 C 67.714844 89.472656 63.863281 90.953125 59.109375 90.222656 C 58.898438 89.074219 59.195312 88.1875 60 87.554688 C 61.890625 88.558594 63.964844 88.707031 66.222656 88 C 68.503906 85.871094 70.578125 83.648438 72.445312 81.332031 Z M 72.445312 81.332031 "/>
<path style=" stroke:none;fill-rule:evenodd;fill:rgb(45.490196%,83.92157%,83.92157%);fill-opacity:1;" d="M 84 75.109375 C 82.046875 80.734375 79.972656 86.363281 77.777344 92 C 75.238281 95.882812 72.277344 99.4375 68.890625 102.667969 C 71.183594 99.558594 73.257812 96.296875 75.109375 92.890625 C 77.066406 89.5625 78.550781 86.007812 79.554688 82.222656 C 80.4375 80.484375 81.324219 78.707031 82.222656 76.890625 C 82.816406 76.296875 83.40625 75.703125 84 75.109375 Z M 84 75.109375 "/>
<path style=" stroke:none;fill-rule:evenodd;fill:rgb(27.450982%,77.254903%,89.803922%);fill-opacity:1;" d="M 90.222656 80.445312 C 89.378906 86.210938 87.601562 91.546875 84.890625 96.445312 C 85.785156 91.363281 86.972656 86.328125 88.445312 81.332031 C 88.851562 80.625 89.445312 80.328125 90.222656 80.445312 Z M 90.222656 80.445312 "/>
<path style=" stroke:none;fill-rule:evenodd;fill:rgb(27.450982%,85.882354%,86.274511%);fill-opacity:1;" d="M 91.109375 74.222656 C 90.957031 76.320312 90.660156 78.394531 90.222656 80.445312 C 89.445312 80.328125 88.851562 80.625 88.445312 81.332031 C 86.972656 86.328125 85.785156 91.363281 84.890625 96.445312 C 84.296875 97.332031 83.703125 98.222656 83.109375 99.109375 C 81.90625 100.078125 81.015625 101.265625 80.445312 102.667969 C 81.636719 96.28125 83.265625 90.058594 85.332031 84 C 87.558594 80.78125 89.484375 77.519531 91.109375 74.222656 Z M 91.109375 74.222656 "/>
<path style=" stroke:none;fill-rule:evenodd;fill:rgb(96.862745%,31.764707%,92.941177%);fill-opacity:1;" d="M 71.554688 84.890625 C 72.519531 84.996094 73.113281 85.589844 73.332031 86.667969 C 71.019531 92.246094 66.875 94.910156 60.890625 94.667969 C 60.683594 91.03125 62.3125 90.4375 65.777344 92.890625 C 67.625 90.609375 69.253906 88.238281 70.667969 85.777344 C 70.667969 85.183594 70.964844 84.890625 71.554688 84.890625 Z M 71.554688 84.890625 "/>
<path style=" stroke:none;fill-rule:evenodd;fill:rgb(27.843139%,70.980394%,93.333334%);fill-opacity:1;" d="M 97.332031 65.332031 C 95.570312 70.328125 93.792969 75.367188 92 80.445312 C 89.078125 88.832031 86.261719 97.425781 83.554688 106.222656 C 82.925781 107.003906 82.183594 107.597656 81.332031 108 C 81.925781 105.039062 82.519531 102.074219 83.109375 99.109375 C 83.703125 98.222656 84.296875 97.332031 84.890625 96.445312 C 87.601562 91.546875 89.378906 86.210938 90.222656 80.445312 C 90.660156 78.394531 90.957031 76.320312 91.109375 74.222656 C 92.773438 71.792969 94.257812 69.128906 95.554688 66.222656 C 96.148438 65.925781 96.742188 65.628906 97.332031 65.332031 Z M 97.332031 65.332031 "/>
<path style=" stroke:none;fill-rule:evenodd;fill:rgb(41.176471%,50.980395%,98.823529%);fill-opacity:1;" d="M 120.445312 67.109375 C 118.695312 68.714844 117.066406 70.492188 115.554688 72.445312 C 113.480469 76.46875 111.554688 80.617188 109.777344 84.890625 C 107.285156 100.246094 105.210938 115.652344 103.554688 131.109375 C 102.667969 131.109375 101.777344 131.109375 100.890625 131.109375 C 101.011719 124.085938 102.199219 117.269531 104.445312 110.667969 C 106.289062 101.175781 107.769531 91.546875 108.890625 81.777344 C 111.085938 78.320312 112.863281 74.613281 114.222656 70.667969 C 115.894531 68.679688 117.96875 67.496094 120.445312 67.109375 Z M 120.445312 67.109375 "/>
<path style=" stroke:none;fill-rule:evenodd;fill:rgb(67.058825%,66.274512%,88.627452%);fill-opacity:1;" d="M 79.554688 82.222656 C 78.550781 86.007812 77.066406 89.5625 75.109375 92.890625 C 72.652344 95.257812 70.28125 97.773438 68 100.445312 C 65.089844 101.144531 62.425781 100.699219 60 99.109375 C 59.703125 98.222656 59.109375 97.628906 58.222656 97.332031 C 57.953125 95.058594 58.25 92.984375 59.109375 91.109375 C 58.992188 92.703125 59.289062 94.183594 60 95.554688 C 60.816406 97.34375 62.296875 98.230469 64.445312 98.222656 C 69.34375 97.101562 72.601562 94.136719 74.222656 89.332031 C 74.941406 87.976562 75.535156 86.492188 76 84.890625 C 77.183594 84 78.371094 83.109375 79.554688 82.222656 Z M 79.554688 82.222656 "/>
<path style=" stroke:none;fill-rule:evenodd;fill:rgb(79.607844%,50.980395%,91.764706%);fill-opacity:1;" d="M 74.222656 89.332031 C 72.601562 94.136719 69.34375 97.101562 64.445312 98.222656 C 62.296875 98.230469 60.816406 97.34375 60 95.554688 C 66.199219 96.902344 70.941406 94.828125 74.222656 89.332031 Z M 74.222656 89.332031 "/>
<path style=" stroke:none;fill-rule:evenodd;fill:rgb(52.549022%,78.039217%,85.09804%);fill-opacity:1;" d="M 75.109375 92.890625 C 73.257812 96.296875 71.183594 99.558594 68.890625 102.667969 C 64.992188 103.488281 62.027344 102.304688 60 99.109375 C 62.425781 100.699219 65.089844 101.144531 68 100.445312 C 70.28125 97.773438 72.652344 95.257812 75.109375 92.890625 Z M 75.109375 92.890625 "/>
<path style=" stroke:none;fill-rule:evenodd;fill:rgb(49.803922%,47.843137%,98.431373%);fill-opacity:1;" d="M 120.445312 67.109375 C 121.925781 67.109375 123.40625 67.109375 124.890625 67.109375 C 126.074219 67.703125 126.960938 68.59375 127.554688 69.777344 C 125.6875 69.796875 124.058594 69.207031 122.667969 68 C 121.523438 68.398438 120.488281 68.992188 119.554688 69.777344 C 117.136719 73.800781 115.058594 77.949219 113.332031 82.222656 C 111.269531 84.695312 110.234375 87.660156 110.222656 91.109375 C 109.550781 103.667969 108.066406 116.113281 105.777344 128.445312 C 105.101562 133.070312 102.882812 136.625 99.109375 139.109375 C 97.015625 139.257812 94.941406 139.109375 92.890625 138.667969 C 96.703125 138.246094 99.664062 136.464844 101.777344 133.332031 C 101.109375 132.738281 100.8125 131.996094 100.890625 131.109375 C 101.777344 131.109375 102.667969 131.109375 103.554688 131.109375 C 105.210938 115.652344 107.285156 100.246094 109.777344 84.890625 C 111.554688 80.617188 113.480469 76.46875 115.554688 72.445312 C 117.066406 70.492188 118.695312 68.714844 120.445312 67.109375 Z M 120.445312 67.109375 "/>
<path style=" stroke:none;fill-rule:evenodd;fill:rgb(93.725491%,45.09804%,90.588236%);fill-opacity:1;" d="M 136.445312 81.332031 C 141.117188 90.484375 142.007812 99.964844 139.109375 109.777344 C 139.257812 103.546875 139.109375 97.328125 138.667969 91.109375 C 137.359375 88.03125 136.621094 84.773438 136.445312 81.332031 Z M 136.445312 81.332031 "/>
<path style=" stroke:none;fill-rule:evenodd;fill:rgb(65.098041%,41.568628%,98.039216%);fill-opacity:1;" d="M 127.554688 69.777344 C 128.445312 70.074219 129.039062 70.667969 129.332031 71.554688 C 123.332031 69.074219 119.332031 70.851562 117.332031 76.890625 C 116.558594 80.875 115.375 84.726562 113.777344 88.445312 C 113.054688 103.007812 111.871094 117.523438 110.222656 132 C 109.085938 135.054688 107.160156 137.425781 104.445312 139.109375 C 103.851562 139.109375 103.257812 139.109375 102.667969 139.109375 C 103.449219 137.4375 104.785156 136.25 106.667969 135.554688 C 106.925781 133.375 107.515625 131.300781 108.445312 129.332031 C 108.949219 113.472656 110.582031 97.769531 113.332031 82.222656 C 115.058594 77.949219 117.136719 73.800781 119.554688 69.777344 C 120.488281 68.992188 121.523438 68.398438 122.667969 68 C 124.058594 69.207031 125.6875 69.796875 127.554688 69.777344 Z M 127.554688 69.777344 "/>
<path style=" stroke:none;fill-rule:evenodd;fill:rgb(56.862748%,45.09804%,98.039216%);fill-opacity:1;" d="M 113.332031 82.222656 C 110.582031 97.769531 108.949219 113.472656 108.445312 129.332031 C 107.515625 131.300781 106.925781 133.375 106.667969 135.554688 C 104.785156 136.25 103.449219 137.4375 102.667969 139.109375 C 101.480469 139.109375 100.296875 139.109375 99.109375 139.109375 C 102.882812 136.625 105.101562 133.070312 105.777344 128.445312 C 108.066406 116.113281 109.550781 103.667969 110.222656 91.109375 C 110.234375 87.660156 111.269531 84.695312 113.332031 82.222656 Z M 113.332031 82.222656 "/>
<path style=" stroke:none;fill-rule:evenodd;fill:rgb(80.392158%,35.294119%,96.862745%);fill-opacity:1;" d="M 129.332031 71.554688 C 131.972656 73.28125 133.753906 75.652344 134.667969 78.667969 C 132.980469 77.355469 131.5 75.875 130.222656 74.222656 C 126.777344 72.613281 123.960938 73.503906 121.777344 76.890625 C 118.265625 86.039062 115.894531 95.519531 114.667969 105.332031 C 114.34375 111.859375 113.898438 118.378906 113.332031 124.890625 C 115.554688 129.035156 114.515625 131.996094 110.222656 133.777344 C 109.949219 134.902344 109.503906 135.941406 108.890625 136.890625 C 109.089844 137.242188 109.386719 137.390625 109.777344 137.332031 C 108.453125 138.914062 106.675781 139.507812 104.445312 139.109375 C 107.160156 137.425781 109.085938 135.054688 110.222656 132 C 111.871094 117.523438 113.054688 103.007812 113.777344 88.445312 C 115.375 84.726562 116.558594 80.875 117.332031 76.890625 C 119.332031 70.851562 123.332031 69.074219 129.332031 71.554688 Z M 129.332031 71.554688 "/>
<path style=" stroke:none;fill-rule:evenodd;fill:rgb(28.235295%,95.294118%,81.568629%);fill-opacity:1;" d="M 96.445312 58.222656 C 97.039062 58.222656 97.628906 58.222656 98.222656 58.222656 C 99.109375 58.222656 100 58.222656 100.890625 58.222656 C 100.738281 61.046875 99.257812 62.824219 96.445312 63.554688 C 95.886719 64.371094 95.589844 65.257812 95.554688 66.222656 C 94.257812 69.128906 92.773438 71.792969 91.109375 74.222656 C 89.484375 77.519531 87.558594 80.78125 85.332031 84 C 83.265625 90.058594 81.636719 96.28125 80.445312 102.667969 C 79.699219 102.96875 79.402344 103.5625 79.554688 104.445312 C 76.945312 105.863281 74.574219 107.644531 72.445312 109.777344 C 69.824219 110.804688 67.160156 110.953125 64.445312 110.222656 C 60.933594 108.6875 59.75 106.167969 60.890625 102.667969 C 63.753906 104.917969 66.421875 104.917969 68.890625 102.667969 C 72.277344 99.4375 75.238281 95.882812 77.777344 92 C 79.972656 86.363281 82.046875 80.734375 84 75.109375 C 86.335938 70.800781 89.003906 66.652344 92 62.667969 C 92 62.371094 92 62.074219 92 61.777344 C 94.125 61.351562 95.605469 60.167969 96.445312 58.222656 Z M 96.445312 58.222656 "/>
<path style=" stroke:none;fill-rule:evenodd;fill:rgb(25.490198%,98.823529%,80.392158%);fill-opacity:1;" d="M 77.777344 92 C 79.132812 91.402344 80.316406 90.511719 81.332031 89.332031 C 81.628906 89.777344 81.925781 90.222656 82.222656 90.667969 C 80.554688 94.566406 79.222656 98.566406 78.222656 102.667969 C 75.988281 105.195312 73.472656 107.414062 70.667969 109.332031 C 68.871094 109.199219 67.09375 108.753906 65.332031 108 C 65.136719 106.957031 65.433594 106.066406 66.222656 105.332031 C 67.320312 105.996094 68.507812 106.292969 69.777344 106.222656 C 69.777344 105.332031 69.777344 104.445312 69.777344 103.554688 C 73.058594 103.382812 74.691406 101.605469 74.667969 98.222656 C 77.117188 96.878906 78.152344 94.804688 77.777344 92 Z M 77.777344 92 "/>
<path style=" stroke:none;fill-rule:evenodd;fill:rgb(31.764707%,89.411765%,84.313726%);fill-opacity:1;" d="M 58.222656 97.332031 C 59.109375 97.628906 59.703125 98.222656 60 99.109375 C 62.027344 102.304688 64.992188 103.488281 68.890625 102.667969 C 66.421875 104.917969 63.753906 104.917969 60.890625 102.667969 C 59.75 106.167969 60.933594 108.6875 64.445312 110.222656 C 67.160156 110.953125 69.824219 110.804688 72.445312 109.777344 C 74.574219 107.644531 76.945312 105.863281 79.554688 104.445312 C 77.714844 109.96875 74.011719 113.230469 68.445312 114.222656 C 63.894531 113.664062 60.78125 111.292969 59.109375 107.109375 C 57.738281 103.925781 57.441406 100.667969 58.222656 97.332031 Z M 58.222656 97.332031 "/>
<path style=" stroke:none;fill-rule:evenodd;fill:rgb(27.843139%,70.980394%,92.941177%);fill-opacity:1;" d="M 81.332031 108 C 79.738281 115.765625 75 118.878906 67.109375 117.332031 C 66.296875 117.085938 65.703125 116.640625 65.332031 116 C 70.582031 116.898438 75.171875 115.714844 79.109375 112.445312 C 79.441406 110.675781 80.183594 109.191406 81.332031 108 Z M 81.332031 108 "/>
<path style=" stroke:none;fill-rule:evenodd;fill:rgb(31.37255%,63.137257%,95.294118%);fill-opacity:1;" d="M 92 80.445312 C 91.820312 83.125 91.523438 85.792969 91.109375 88.445312 C 89.054688 98.324219 85.351562 107.507812 80 116 C 78.921875 117.375 77.585938 118.414062 76 119.109375 C 72.089844 119.980469 68.386719 119.535156 64.890625 117.777344 C 64.136719 120.4375 65.171875 121.621094 68 121.332031 C 68.015625 123.167969 68.3125 124.945312 68.890625 126.667969 C 65.480469 123.839844 63.109375 120.285156 61.777344 116 C 62.8125 113.757812 64 113.757812 65.332031 116 C 65.703125 116.640625 66.296875 117.085938 67.109375 117.332031 C 75 118.878906 79.738281 115.765625 81.332031 108 C 82.183594 107.597656 82.925781 107.003906 83.554688 106.222656 C 86.261719 97.425781 89.078125 88.832031 92 80.445312 Z M 92 80.445312 "/>
<path style=" stroke:none;fill-rule:evenodd;fill:rgb(30.588236%,78.039217%,89.411765%);fill-opacity:1;" d="M 83.109375 99.109375 C 82.519531 102.074219 81.925781 105.039062 81.332031 108 C 80.183594 109.191406 79.441406 110.675781 79.109375 112.445312 C 75.171875 115.714844 70.582031 116.898438 65.332031 116 C 64 113.757812 62.8125 113.757812 61.777344 116 C 60.199219 113.328125 59.308594 110.367188 59.109375 107.109375 C 60.78125 111.292969 63.894531 113.664062 68.445312 114.222656 C 74.011719 113.230469 77.714844 109.96875 79.554688 104.445312 C 79.402344 103.5625 79.699219 102.96875 80.445312 102.667969 C 81.015625 101.265625 81.90625 100.078125 83.109375 99.109375 Z M 83.109375 99.109375 "/>
<path style=" stroke:none;fill-rule:evenodd;fill:rgb(94.901961%,38.431373%,91.37255%);fill-opacity:1;" d="M 139.109375 109.777344 C 137.683594 116.789062 134.425781 122.710938 129.332031 127.554688 C 128.476562 125.820312 128.183594 124.191406 128.445312 122.667969 C 129.5625 121.675781 130.601562 121.527344 131.554688 122.222656 C 134.136719 118.039062 136.65625 113.890625 139.109375 109.777344 Z M 139.109375 109.777344 "/>
<path style=" stroke:none;fill-rule:evenodd;fill:rgb(95.294118%,40.784314%,91.37255%);fill-opacity:1;" d="M 128.445312 128.445312 C 127.480469 130.300781 126 131.484375 124 132 C 123.746094 130.410156 124.042969 128.929688 124.890625 127.554688 C 125.988281 128.21875 127.171875 128.515625 128.445312 128.445312 Z M 128.445312 128.445312 "/>
<path style=" stroke:none;fill-rule:evenodd;fill:rgb(90.196079%,30.588236%,96.470588%);fill-opacity:1;" d="M 130.222656 74.222656 C 128.710938 74.078125 127.230469 74.226562 125.777344 74.667969 C 123.191406 77.664062 121.265625 81.074219 120 84.890625 C 118.699219 99.40625 117.660156 113.925781 116.890625 128.445312 C 117.878906 129.125 118.46875 130.011719 118.667969 131.109375 C 116.0625 132.121094 115.765625 133.308594 117.777344 134.667969 C 115.863281 135.113281 114.378906 136 113.332031 137.332031 C 112.148438 137.332031 110.960938 137.332031 109.777344 137.332031 C 109.386719 137.390625 109.089844 137.242188 108.890625 136.890625 C 109.503906 135.941406 109.949219 134.902344 110.222656 133.777344 C 114.515625 131.996094 115.554688 129.035156 113.332031 124.890625 C 113.898438 118.378906 114.34375 111.859375 114.667969 105.332031 C 115.894531 95.519531 118.265625 86.039062 121.777344 76.890625 C 123.960938 73.503906 126.777344 72.613281 130.222656 74.222656 Z M 130.222656 74.222656 "/>
<path style=" stroke:none;fill-rule:evenodd;fill:rgb(94.901961%,40.392157%,92.54902%);fill-opacity:1;" d="M 118.667969 131.109375 C 120.273438 131.578125 121.753906 132.167969 123.109375 132.890625 C 120.285156 135.339844 117.027344 137.117188 113.332031 138.222656 C 113.332031 137.925781 113.332031 137.628906 113.332031 137.332031 C 114.378906 136 115.863281 135.113281 117.777344 134.667969 C 115.765625 133.308594 116.0625 132.121094 118.667969 131.109375 Z M 118.667969 131.109375 "/>
<path style=" stroke:none;fill-rule:evenodd;fill:rgb(80.000001%,56.470591%,92.941177%);fill-opacity:1;" d="M 109.777344 137.332031 C 110.960938 137.332031 112.148438 137.332031 113.332031 137.332031 C 113.332031 137.628906 113.332031 137.925781 113.332031 138.222656 C 106.585938 140.796875 99.773438 141.390625 92.890625 140 C 95.164062 140.269531 97.238281 139.972656 99.109375 139.109375 C 100.296875 139.109375 101.480469 139.109375 102.667969 139.109375 C 103.257812 139.109375 103.851562 139.109375 104.445312 139.109375 C 106.675781 139.507812 108.453125 138.914062 109.777344 137.332031 Z M 109.777344 137.332031 "/>
</g>
</svg>
