<?xml version="1.0" standalone="no"?>
<!DOCTYPE svg PUBLIC "-//W3C//DTD SVG 20010904//EN"
 "http://www.w3.org/TR/2001/REC-SVG-20010904/DTD/svg10.dtd">
<svg version="1.0" xmlns="http://www.w3.org/2000/svg"
 width="225.000000pt" height="225.000000pt" viewBox="0 0 225.000000 225.000000"
 preserveAspectRatio="xMidYMid meet">

<g transform="translate(0.000000,225.000000) scale(0.100000,-0.100000)"
fill="#000000" stroke="none">
<path d="M1320 1536 c0 -2 8 -10 18 -17 15 -13 16 -12 3 4 -13 16 -21 21 -21
13z"/>
<path d="M1402 1463 c2 -5 -10 -21 -26 -34 -33 -29 -65 -103 -73 -169 -2 -25
-8 -49 -13 -55 -4 -5 -11 -59 -14 -120 -15 -229 -21 -284 -37 -334 -14 -41
-27 -57 -55 -64 -10 -3 6 -3 36 0 30 3 57 9 60 12 3 3 12 7 20 9 34 7 125 70
162 112 126 142 153 341 69 512 -25 52 -69 101 -82 92 -5 -3 -8 0 -7 8 2 7 -5
12 -14 12 -10 -1 -16 2 -13 6 3 5 1 12 -5 15 -6 4 -9 2 -8 -2z"/>
<path d="M905 1440 c-4 -12 -5 -24 -2 -27 3 -2 8 5 12 17 4 12 5 24 2 27 -3 2
-8 -5 -12 -17z"/>
<path d="M837 1317 c-15 -24 -43 -59 -63 -76 -30 -27 -41 -31 -71 -26 -31 5
-33 3 -19 -10 23 -23 62 -18 94 13 33 30 97 130 89 138 -2 3 -16 -15 -30 -39z"/>
<path d="M710 926 c0 -2 8 -10 18 -17 15 -13 16 -12 3 4 -13 16 -21 21 -21 13z"/>
<path d="M745 881 c-3 -5 -2 -12 3 -15 5 -3 9 1 9 9 0 17 -3 19 -12 6z"/>
<path d="M797 809 c7 -7 15 -10 18 -7 3 3 -2 9 -12 12 -14 6 -15 5 -6 -5z"/>
</g>
</svg>
