<?xml version="1.0" encoding="UTF-8"?>
<svg xmlns="http://www.w3.org/2000/svg" xmlns:xlink="http://www.w3.org/1999/xlink" width="100px" height="100px" viewBox="0 0 100 100" version="1.1">
<defs>
<filter id="alpha" filterUnits="objectBoundingBox" x="0%" y="0%" width="100%" height="100%">
  <feColorMatrix type="matrix" in="SourceGraphic" values="0 0 0 0 1 0 0 0 0 1 0 0 0 0 1 0 0 0 1 0"/>
</filter>
<mask id="mask0">
  <g filter="url(#alpha)">
<rect x="0" y="0" width="100" height="100" style="fill:rgb(0%,0%,0%);fill-opacity:0.996078;stroke:none;"/>
  </g>
</mask>
<clipPath id="clip1">
  <rect x="0" y="0" width="100" height="100"/>
</clipPath>
<g id="surface5" clip-path="url(#clip1)">
<path style=" stroke:none;fill-rule:evenodd;fill:rgb(85.09804%,63.529414%,84.705883%);fill-opacity:1;" d="M 47.332031 29.109375 C 46.769531 29.605469 46.316406 30.210938 46 30.890625 L 45.554688 30.890625 C 45.039062 29.769531 44.445312 29.769531 43.777344 30.890625 L 43.332031 30.890625 L 43.332031 30 C 44.613281 29.496094 45.960938 29.195312 47.332031 29.109375 "/>
</g>
<mask id="mask1">
  <g filter="url(#alpha)">
<rect x="0" y="0" width="100" height="100" style="fill:rgb(0%,0%,0%);fill-opacity:0.584314;stroke:none;"/>
  </g>
</mask>
<clipPath id="clip2">
  <rect x="0" y="0" width="100" height="100"/>
</clipPath>
<g id="surface8" clip-path="url(#clip2)">
<path style=" stroke:none;fill-rule:evenodd;fill:rgb(95.294118%,60.784316%,93.725491%);fill-opacity:1;" d="M 67.332031 39.332031 C 67.957031 39.542969 68.253906 39.988281 68.222656 40.667969 C 67.597656 40.457031 67.300781 40.011719 67.332031 39.332031 "/>
</g>
</defs>
<g id="surface1">
<use xlink:href="#surface5" mask="url(#mask0)"/>
<path style=" stroke:none;fill-rule:evenodd;fill:rgb(50.588238%,81.960785%,83.92157%);fill-opacity:1;" d="M 47.332031 29.109375 L 48.222656 29.109375 C 47.800781 30.082031 47.0625 30.675781 46 30.890625 C 46.316406 30.210938 46.769531 29.605469 47.332031 29.109375 "/>
<path style=" stroke:none;fill-rule:evenodd;fill:rgb(45.09804%,82.352942%,89.411765%);fill-opacity:1;" d="M 49.109375 29.109375 C 49.296875 28.832031 49.59375 28.6875 50 28.667969 C 51.882812 28.925781 53.660156 29.371094 55.332031 30 C 53.996094 29.925781 52.65625 30 51.332031 30.222656 C 50.519531 31.113281 49.625 31.933594 48.667969 32.667969 L 47.777344 33.109375 C 47.792969 32.632812 47.949219 32.171875 48.222656 31.777344 C 49.628906 31.410156 50.367188 30.523438 50.445312 29.109375 Z M 49.109375 29.109375 "/>
<path style=" stroke:none;fill-rule:evenodd;fill:rgb(31.764707%,54.11765%,99.215686%);fill-opacity:1;" d="M 56.667969 30.445312 C 58.929688 30.910156 60.859375 31.945312 62.445312 33.554688 L 60.222656 33.554688 C 58.984375 33.75 57.945312 34.339844 57.109375 35.332031 C 56.441406 37.28125 55.546875 39.148438 54.445312 40.890625 C 53.890625 45.730469 53.148438 50.550781 52.222656 55.332031 C 51.101562 58.628906 50.5 62.078125 50.445312 65.554688 C 50.40625 66 50.554688 66.367188 50.890625 66.667969 C 49.832031 68.234375 48.351562 69.121094 46.445312 69.332031 C 47.472656 69.554688 48.507812 69.628906 49.554688 69.554688 C 48.617188 69.984375 47.582031 70.132812 46.445312 70 C 45.734375 70.117188 45.140625 69.96875 44.667969 69.554688 C 43.773438 68.890625 42.886719 68.226562 42 67.554688 C 43.890625 67.1875 44.257812 66.371094 43.109375 65.109375 C 42.617188 65.792969 41.949219 66.089844 41.109375 66 C 41.195312 66.710938 40.972656 67.304688 40.445312 67.777344 C 39.480469 67.328125 38.960938 66.589844 38.890625 65.554688 L 40.667969 65.554688 C 40.53125 64.183594 41.125 63.441406 42.445312 63.332031 C 41.789062 59.332031 42.679688 55.777344 45.109375 52.667969 C 44.683594 52.082031 44.757812 51.492188 45.332031 50.890625 C 45.894531 52.582031 46.191406 54.363281 46.222656 56.222656 C 46.671875 56.59375 47.191406 56.742188 47.777344 56.667969 C 47.304688 50.710938 47.894531 44.933594 49.554688 39.332031 L 48.222656 39.332031 C 48.175781 36.914062 48.84375 36.617188 50.222656 38.445312 C 50.546875 37.230469 50.472656 36.046875 50 34.890625 C 52.410156 34.0625 53.300781 34.949219 52.667969 37.554688 C 53.386719 37.617188 53.90625 37.320312 54.222656 36.667969 C 54.441406 35.640625 54.515625 34.601562 54.445312 33.554688 C 53.820312 33.519531 53.199219 33.671875 52.667969 34 C 52.226562 33.699219 51.78125 33.402344 51.332031 33.109375 C 51.527344 32.410156 51.972656 31.894531 52.667969 31.554688 C 52.464844 31.375 52.3125 31.144531 52.222656 30.890625 C 53.660156 30.453125 55.171875 30.300781 56.667969 30.445312 "/>
<path style=" stroke:none;fill-rule:evenodd;fill:rgb(96.862745%,49.019608%,61.56863%);fill-opacity:1;" d="M 43.332031 30.890625 L 43.777344 30.890625 C 42.441406 32.371094 41.109375 33.851562 39.777344 35.332031 C 40.460938 33.464844 41.644531 31.984375 43.332031 30.890625 "/>
<path style=" stroke:none;fill-rule:evenodd;fill:rgb(90.980393%,39.607844%,88.235295%);fill-opacity:1;" d="M 45.554688 30.890625 C 43.378906 32.316406 41.898438 34.246094 41.109375 36.667969 C 40.683594 36.867188 40.316406 37.164062 40 37.554688 C 39.664062 39.363281 39 40.996094 38 42.445312 C 37.78125 43.214844 37.484375 43.957031 37.109375 44.667969 C 35.46875 47.414062 33.101562 48.449219 30 47.777344 C 29.644531 47.09375 29.496094 46.351562 29.554688 45.554688 L 29.554688 45.109375 C 31.933594 45.476562 33.859375 44.734375 35.332031 42.890625 C 34.617188 44.136719 33.796875 45.328125 32.890625 46.445312 C 31.15625 45.21875 30.339844 45.515625 30.445312 47.332031 C 33.4375 47.457031 35.511719 46.121094 36.667969 43.332031 C 36.558594 42.792969 36.261719 42.496094 35.777344 42.445312 L 36.222656 40.667969 C 37.5625 39.464844 38.453125 37.980469 38.890625 36.222656 C 39.332031 36.074219 39.628906 35.777344 39.777344 35.332031 C 41.097656 33.863281 42.433594 32.382812 43.777344 30.890625 C 44.445312 29.769531 45.039062 29.769531 45.554688 30.890625 "/>
<path style=" stroke:none;fill-rule:evenodd;fill:rgb(44.705883%,84.313726%,83.92157%);fill-opacity:1;" d="M 46 31.332031 C 44.515625 33.304688 43.175781 35.386719 42 37.554688 C 42.519531 34.945312 43.855469 32.871094 46 31.332031 "/>
<path style=" stroke:none;fill-rule:evenodd;fill:rgb(98.431373%,78.823531%,17.647059%);fill-opacity:1;" d="M 37.109375 38.445312 C 36.695312 39.128906 36.394531 39.882812 36.222656 40.667969 C 35.265625 41.847656 34.226562 42.964844 33.109375 44 C 31.984375 44.355469 30.945312 44.28125 30 43.777344 C 30.613281 41.21875 31.796875 38.996094 33.554688 37.109375 C 34.011719 37.179688 34.480469 37.101562 34.890625 36.890625 C 35.175781 36.171875 35.546875 35.507812 36 34.890625 C 36.292969 36.097656 36.664062 37.285156 37.109375 38.445312 "/>
<path style=" stroke:none;fill-rule:evenodd;fill:rgb(29.019609%,58.823532%,96.862745%);fill-opacity:1;" d="M 55.332031 30 C 55.90625 29.894531 56.351562 30.042969 56.667969 30.445312 C 55.171875 30.300781 53.660156 30.453125 52.222656 30.890625 C 52.3125 31.144531 52.464844 31.375 52.667969 31.554688 C 51.972656 31.894531 51.527344 32.410156 51.332031 33.109375 C 50.625 33.429688 49.960938 33.875 49.332031 34.445312 C 49.222656 35.40625 48.78125 36.148438 48 36.667969 C 47.414062 39.308594 46.597656 41.828125 45.554688 44.222656 C 45.761719 42.898438 45.910156 41.5625 46 40.222656 C 46.894531 37.683594 47.785156 35.164062 48.667969 32.667969 C 49.625 31.933594 50.519531 31.113281 51.332031 30.222656 C 52.65625 30 53.996094 29.925781 55.332031 30 "/>
<path style=" stroke:none;fill-rule:evenodd;fill:rgb(98.431373%,78.431374%,25.490198%);fill-opacity:1;" d="M 43.332031 30 L 43.332031 30.890625 C 41.644531 31.984375 40.460938 33.464844 39.777344 35.332031 C 39.628906 35.777344 39.332031 36.074219 38.890625 36.222656 L 37.109375 38.445312 C 36.664062 37.285156 36.292969 36.097656 36 34.890625 C 35.546875 35.507812 35.171875 36.179688 34.890625 36.890625 C 34.480469 37.101562 34.011719 37.179688 33.554688 37.109375 C 35.910156 33.582031 39.171875 31.210938 43.332031 30 "/>
<path style=" stroke:none;fill-rule:evenodd;fill:rgb(61.960787%,69.803923%,88.235295%);fill-opacity:1;" d="M 45.554688 30.890625 L 46 30.890625 L 46 31.332031 C 43.855469 32.871094 42.519531 34.945312 42 37.554688 L 41.109375 38.445312 L 41.109375 36.667969 C 41.898438 34.246094 43.378906 32.316406 45.554688 30.890625 "/>
<path style=" stroke:none;fill-rule:evenodd;fill:rgb(99.215686%,25.882354%,96.078432%);fill-opacity:1;" d="M 65.109375 37.109375 C 65.753906 37.941406 66.5 38.691406 67.332031 39.332031 C 67.300781 40.011719 67.597656 40.457031 68.222656 40.667969 C 68.308594 42.386719 68.679688 44.015625 69.332031 45.554688 C 69.554688 48.664062 69.628906 51.773438 69.554688 54.890625 C 68.3125 56.972656 67.050781 59.046875 65.777344 61.109375 C 65.300781 60.765625 64.78125 60.839844 64.222656 61.332031 C 64.089844 62.09375 64.238281 62.910156 64.667969 63.777344 C 64.667969 64.074219 64.519531 64.222656 64.222656 64.222656 C 63.597656 64.261719 62.976562 64.105469 62.445312 63.777344 C 62.019531 64.464844 61.875 65.207031 62 66 C 62 66.296875 61.851562 66.445312 61.554688 66.445312 C 60.847656 66.074219 60.101562 65.773438 59.332031 65.554688 C 59.234375 65.007812 58.9375 64.5625 58.445312 64.222656 C 58.832031 56.953125 59.351562 49.695312 60 42.445312 C 60.632812 40.535156 61.597656 38.832031 62.890625 37.332031 C 63.609375 37.113281 64.363281 37.039062 65.109375 37.109375 "/>
<path style=" stroke:none;fill-rule:evenodd;fill:rgb(100%,59.607846%,49.019608%);fill-opacity:1;" d="M 38.890625 36.222656 C 38.453125 37.980469 37.5625 39.464844 36.222656 40.667969 C 36.394531 39.882812 36.695312 39.128906 37.109375 38.445312 Z M 38.890625 36.222656 "/>
<path style=" stroke:none;fill-rule:evenodd;fill:rgb(29.019609%,54.901963%,98.823529%);fill-opacity:1;" d="M 51.332031 33.109375 C 51.769531 33.394531 52.214844 33.691406 52.667969 34 C 53.199219 33.671875 53.820312 33.519531 54.445312 33.554688 C 54.515625 34.597656 54.441406 35.644531 54.222656 36.667969 C 53.90625 37.320312 53.386719 37.617188 52.667969 37.554688 C 53.300781 34.949219 52.410156 34.0625 50 34.890625 C 50.472656 36.046875 50.546875 37.230469 50.222656 38.445312 C 48.84375 36.617188 48.175781 36.914062 48.222656 39.332031 L 49.554688 39.332031 C 47.894531 44.933594 47.304688 50.710938 47.777344 56.667969 C 47.191406 56.742188 46.671875 56.59375 46.222656 56.222656 C 46.191406 54.363281 45.894531 52.582031 45.332031 50.890625 C 44.757812 51.492188 44.683594 52.082031 45.109375 52.667969 C 42.679688 55.777344 41.789062 59.332031 42.445312 63.332031 C 41.125 63.441406 40.53125 64.183594 40.667969 65.554688 L 38.890625 65.554688 C 38.960938 66.589844 39.480469 67.328125 40.445312 67.777344 C 40.972656 67.304688 41.195312 66.710938 41.109375 66 C 41.949219 66.089844 42.617188 65.792969 43.109375 65.109375 C 44.257812 66.371094 43.890625 67.1875 42 67.554688 C 42.921875 68.253906 43.8125 68.917969 44.667969 69.554688 C 40.496094 68.730469 37.089844 66.65625 34.445312 63.332031 C 34.15625 62.472656 34.003906 61.574219 34 60.667969 C 32.585938 60.8125 32.066406 60.21875 32.445312 58.890625 C 34.191406 59.769531 36.042969 59.988281 38 59.554688 C 38.785156 59.210938 39.472656 58.679688 40 58 C 42.675781 53.753906 44.527344 49.160156 45.554688 44.222656 C 46.597656 41.828125 47.414062 39.308594 48 36.667969 C 48.78125 36.148438 49.222656 35.40625 49.332031 34.445312 C 49.960938 33.875 50.625 33.429688 51.332031 33.109375 "/>
<path style=" stroke:none;fill-rule:evenodd;fill:rgb(77.254903%,53.725493%,90.980393%);fill-opacity:1;" d="M 41.109375 36.667969 L 41.109375 38.445312 C 40.011719 38.972656 39.566406 39.859375 39.777344 41.109375 L 38 42.445312 C 39 40.996094 39.664062 39.363281 40 37.554688 C 40.316406 37.164062 40.683594 36.867188 41.109375 36.667969 "/>
<path style=" stroke:none;fill-rule:evenodd;fill:rgb(61.960787%,69.01961%,88.627452%);fill-opacity:1;" d="M 41.109375 38.445312 C 40.671875 39.335938 40.226562 40.226562 39.777344 41.109375 C 39.566406 39.859375 40.011719 38.972656 41.109375 38.445312 "/>
<use xlink:href="#surface8" mask="url(#mask1)"/>
<path style=" stroke:none;fill-rule:evenodd;fill:rgb(99.215686%,58.039218%,55.29412%);fill-opacity:1;" d="M 36.222656 40.667969 L 35.777344 42.445312 C 35.480469 42.445312 35.332031 42.59375 35.332031 42.890625 C 33.859375 44.734375 31.933594 45.476562 29.554688 45.109375 C 29.449219 44.539062 29.597656 44.09375 30 43.777344 C 30.945312 44.28125 31.984375 44.355469 33.109375 44 C 34.226562 42.964844 35.265625 41.847656 36.222656 40.667969 "/>
<path style=" stroke:none;fill-rule:evenodd;fill:rgb(45.490196%,83.92157%,83.92157%);fill-opacity:1;" d="M 42 37.554688 C 41.015625 40.390625 39.980469 43.203125 38.890625 46 C 37.617188 47.941406 36.125 49.734375 34.445312 51.332031 C 35.59375 49.777344 36.632812 48.144531 37.554688 46.445312 C 38.535156 44.78125 39.273438 43.003906 39.777344 41.109375 C 40.226562 40.226562 40.671875 39.335938 41.109375 38.445312 Z M 42 37.554688 "/>
<path style=" stroke:none;fill-rule:evenodd;fill:rgb(27.450982%,77.254903%,89.803922%);fill-opacity:1;" d="M 45.109375 40.222656 C 44.6875 43.105469 43.800781 45.773438 42.445312 48.222656 C 42.894531 45.671875 43.488281 43.148438 44.222656 40.667969 C 44.425781 40.3125 44.722656 40.164062 45.109375 40.222656 "/>
<path style=" stroke:none;fill-rule:evenodd;fill:rgb(27.450982%,85.882354%,86.274511%);fill-opacity:1;" d="M 45.554688 37.109375 C 45.480469 38.15625 45.332031 39.195312 45.109375 40.222656 C 44.722656 40.164062 44.425781 40.3125 44.222656 40.667969 C 43.488281 43.148438 42.894531 45.671875 42.445312 48.222656 L 41.554688 49.554688 C 40.964844 50.023438 40.503906 50.636719 40.222656 51.332031 C 40.8125 48.167969 41.628906 45.046875 42.667969 42 C 43.777344 40.390625 44.742188 38.761719 45.554688 37.109375 "/>
<path style=" stroke:none;fill-rule:evenodd;fill:rgb(96.862745%,31.764707%,92.941177%);fill-opacity:1;" d="M 35.777344 42.445312 C 36.261719 42.496094 36.558594 42.792969 36.667969 43.332031 C 35.511719 46.121094 33.4375 47.457031 30.445312 47.332031 C 30.339844 45.515625 31.15625 45.21875 32.890625 46.445312 C 33.796875 45.328125 34.617188 44.136719 35.332031 42.890625 C 35.332031 42.59375 35.480469 42.445312 35.777344 42.445312 "/>
<path style=" stroke:none;fill-rule:evenodd;fill:rgb(27.843139%,70.980394%,93.333334%);fill-opacity:1;" d="M 48.667969 32.667969 C 47.785156 35.164062 46.894531 37.683594 46 40.222656 C 44.515625 44.492188 43.105469 48.789062 41.777344 53.109375 C 41.464844 53.503906 41.09375 53.796875 40.667969 54 L 41.554688 49.554688 L 42.445312 48.222656 C 43.800781 45.773438 44.6875 43.105469 45.109375 40.222656 C 45.332031 39.195312 45.480469 38.15625 45.554688 37.109375 C 46.386719 35.898438 47.128906 34.5625 47.777344 33.109375 Z M 48.667969 32.667969 "/>
<path style=" stroke:none;fill-rule:evenodd;fill:rgb(41.176471%,50.980395%,98.823529%);fill-opacity:1;" d="M 60.222656 33.554688 C 59.332031 34.375 58.515625 35.265625 57.777344 36.222656 C 56.730469 38.257812 55.765625 40.332031 54.890625 42.445312 C 53.644531 50.117188 52.605469 57.824219 51.777344 65.554688 L 50.445312 65.554688 C 50.5 62.078125 51.101562 58.628906 52.222656 55.332031 C 53.148438 50.550781 53.890625 45.730469 54.445312 40.890625 C 55.546875 39.148438 56.441406 37.28125 57.109375 35.332031 C 57.945312 34.339844 58.984375 33.75 60.222656 33.554688 "/>
<path style=" stroke:none;fill-rule:evenodd;fill:rgb(67.058825%,66.274512%,88.627452%);fill-opacity:1;" d="M 39.777344 41.109375 C 39.285156 42.980469 38.535156 44.777344 37.554688 46.445312 C 36.308594 47.644531 35.125 48.90625 34 50.222656 C 32.546875 50.574219 31.210938 50.351562 30 49.554688 C 29.851562 49.109375 29.554688 48.816406 29.109375 48.667969 C 28.976562 47.527344 29.125 46.492188 29.554688 45.554688 C 29.496094 46.351562 29.644531 47.09375 30 47.777344 C 30.40625 48.671875 31.148438 49.117188 32.222656 49.109375 C 34.671875 48.550781 36.300781 47.070312 37.109375 44.667969 C 37.484375 43.957031 37.78125 43.214844 38 42.445312 Z M 39.777344 41.109375 "/>
<path style=" stroke:none;fill-rule:evenodd;fill:rgb(79.607844%,50.980395%,91.764706%);fill-opacity:1;" d="M 37.109375 44.667969 C 36.300781 47.070312 34.671875 48.550781 32.222656 49.109375 C 31.148438 49.117188 30.40625 48.671875 30 47.777344 C 33.101562 48.449219 35.46875 47.414062 37.109375 44.667969 "/>
<path style=" stroke:none;fill-rule:evenodd;fill:rgb(52.549022%,78.039217%,85.09804%);fill-opacity:1;" d="M 37.554688 46.445312 C 36.632812 48.144531 35.59375 49.777344 34.445312 51.332031 C 32.496094 51.742188 31.015625 51.152344 30 49.554688 C 31.210938 50.351562 32.546875 50.574219 34 50.222656 C 35.125 48.90625 36.308594 47.644531 37.554688 46.445312 "/>
<path style=" stroke:none;fill-rule:evenodd;fill:rgb(49.803922%,47.843137%,98.431373%);fill-opacity:1;" d="M 60.222656 33.554688 L 62.445312 33.554688 C 63.023438 33.839844 63.492188 34.308594 63.777344 34.890625 C 62.84375 34.898438 62.03125 34.601562 61.332031 34 C 60.765625 34.199219 60.238281 34.5 59.777344 34.890625 C 58.578125 36.878906 57.539062 38.957031 56.667969 41.109375 C 55.636719 42.347656 55.117188 43.828125 55.109375 45.554688 C 54.777344 51.820312 54.035156 58.054688 52.890625 64.222656 C 52.550781 66.535156 51.441406 68.3125 49.554688 69.554688 C 48.511719 69.628906 47.464844 69.554688 46.445312 69.332031 C 48.351562 69.121094 49.832031 68.234375 50.890625 66.667969 C 50.554688 66.367188 50.40625 66 50.445312 65.554688 L 51.777344 65.554688 C 52.605469 57.824219 53.644531 50.117188 54.890625 42.445312 C 55.765625 40.332031 56.730469 38.257812 57.777344 36.222656 C 58.515625 35.265625 59.332031 34.375 60.222656 33.554688 "/>
<path style=" stroke:none;fill-rule:evenodd;fill:rgb(93.725491%,45.09804%,90.588236%);fill-opacity:1;" d="M 68.222656 40.667969 C 70.558594 45.242188 71.003906 49.980469 69.554688 54.890625 C 69.628906 51.773438 69.554688 48.664062 69.332031 45.554688 C 68.679688 44.015625 68.308594 42.386719 68.222656 40.667969 "/>
<path style=" stroke:none;fill-rule:evenodd;fill:rgb(65.098041%,41.568628%,98.039216%);fill-opacity:1;" d="M 63.777344 34.890625 C 64.222656 35.035156 64.519531 35.332031 64.667969 35.777344 C 61.664062 34.535156 59.664062 35.425781 58.667969 38.445312 C 58.28125 40.429688 57.6875 42.367188 56.890625 44.222656 C 56.527344 51.5 55.933594 58.761719 55.109375 66 C 54.542969 67.527344 53.582031 68.714844 52.222656 69.554688 L 51.332031 69.554688 C 51.726562 68.71875 52.390625 68.125 53.332031 67.777344 C 53.460938 66.6875 53.757812 65.652344 54.222656 64.667969 C 54.472656 56.765625 55.289062 48.894531 56.667969 41.109375 C 57.539062 38.957031 58.578125 36.878906 59.777344 34.890625 C 60.238281 34.5 60.765625 34.199219 61.332031 34 C 62.03125 34.601562 62.84375 34.898438 63.777344 34.890625 "/>
<path style=" stroke:none;fill-rule:evenodd;fill:rgb(56.862748%,45.09804%,98.039216%);fill-opacity:1;" d="M 56.667969 41.109375 C 55.289062 48.894531 54.472656 56.765625 54.222656 64.667969 C 53.757812 65.648438 53.457031 66.699219 53.332031 67.777344 C 52.390625 68.125 51.726562 68.71875 51.332031 69.554688 L 49.554688 69.554688 C 51.441406 68.3125 52.550781 66.535156 52.890625 64.222656 C 54.035156 58.054688 54.777344 51.820312 55.109375 45.554688 C 55.117188 43.828125 55.636719 42.347656 56.667969 41.109375 "/>
<path style=" stroke:none;fill-rule:evenodd;fill:rgb(80.392158%,35.294119%,96.862745%);fill-opacity:1;" d="M 64.667969 35.777344 C 65.988281 36.640625 66.875 37.828125 67.332031 39.332031 C 66.5 38.691406 65.753906 37.941406 65.109375 37.109375 C 63.386719 36.308594 61.980469 36.75 60.890625 38.445312 C 59.132812 43.023438 57.9375 47.800781 57.332031 52.667969 C 57.171875 55.929688 56.949219 59.191406 56.667969 62.445312 C 57.777344 64.515625 57.257812 66 55.109375 66.890625 C 54.976562 67.441406 54.753906 67.96875 54.445312 68.445312 C 54.546875 68.621094 54.695312 68.695312 54.890625 68.667969 C 54.226562 69.457031 53.335938 69.753906 52.222656 69.554688 C 53.582031 68.714844 54.542969 67.527344 55.109375 66 C 55.933594 58.761719 56.527344 51.5 56.890625 44.222656 C 57.6875 42.367188 58.28125 40.429688 58.667969 38.445312 C 59.664062 35.425781 61.664062 34.535156 64.667969 35.777344 "/>
<path style=" stroke:none;fill-rule:evenodd;fill:rgb(28.235295%,95.294118%,81.568629%);fill-opacity:1;" d="M 48.222656 29.109375 L 50.445312 29.109375 C 50.367188 30.523438 49.628906 31.410156 48.222656 31.777344 C 47.949219 32.171875 47.792969 32.632812 47.777344 33.109375 C 47.128906 34.5625 46.386719 35.898438 45.554688 37.109375 C 44.742188 38.761719 43.777344 40.390625 42.667969 42 C 41.628906 45.046875 40.8125 48.167969 40.222656 51.332031 C 39.851562 51.484375 39.703125 51.78125 39.777344 52.222656 C 38.46875 52.933594 37.273438 53.832031 36.222656 54.890625 C 34.914062 55.402344 33.578125 55.476562 32.222656 55.109375 C 30.46875 54.34375 29.875 53.085938 30.445312 51.332031 C 31.878906 52.460938 33.210938 52.460938 34.445312 51.332031 C 36.125 49.734375 37.617188 47.941406 38.890625 46 C 39.980469 43.203125 41.015625 40.390625 42 37.554688 C 43.175781 35.386719 44.515625 33.304688 46 31.332031 L 46 30.890625 C 47.0625 30.675781 47.800781 30.082031 48.222656 29.109375 "/>
<path style=" stroke:none;fill-rule:evenodd;fill:rgb(25.490198%,98.823529%,80.392158%);fill-opacity:1;" d="M 38.890625 46 C 39.566406 45.699219 40.160156 45.257812 40.667969 44.667969 L 41.109375 45.332031 C 40.28125 47.273438 39.609375 49.28125 39.109375 51.332031 C 37.996094 52.597656 36.726562 53.714844 35.332031 54.667969 C 34.4375 54.597656 33.546875 54.375 32.667969 54 C 32.570312 53.476562 32.71875 53.035156 33.109375 52.667969 C 33.644531 52.992188 34.265625 53.148438 34.890625 53.109375 L 34.890625 51.777344 C 36.53125 51.691406 37.34375 50.800781 37.332031 49.109375 C 38.558594 48.441406 39.074219 47.402344 38.890625 46 "/>
<path style=" stroke:none;fill-rule:evenodd;fill:rgb(31.764707%,89.411765%,84.313726%);fill-opacity:1;" d="M 29.109375 48.667969 C 29.554688 48.816406 29.851562 49.109375 30 49.554688 C 31.015625 51.152344 32.496094 51.742188 34.445312 51.332031 C 33.210938 52.460938 31.878906 52.460938 30.445312 51.332031 C 29.875 53.085938 30.46875 54.34375 32.222656 55.109375 C 33.578125 55.476562 34.914062 55.402344 36.222656 54.890625 C 37.273438 53.832031 38.46875 52.933594 39.777344 52.222656 C 38.859375 54.984375 37.007812 56.613281 34.222656 57.109375 C 31.945312 56.832031 30.390625 55.648438 29.554688 53.554688 C 28.871094 51.964844 28.722656 50.332031 29.109375 48.667969 "/>
<path style=" stroke:none;fill-rule:evenodd;fill:rgb(27.843139%,70.980394%,92.941177%);fill-opacity:1;" d="M 40.667969 54 C 39.871094 57.882812 37.5 59.4375 33.554688 58.667969 C 33.148438 58.542969 32.851562 58.320312 32.667969 58 C 35.289062 58.449219 37.585938 57.855469 39.554688 56.222656 C 39.722656 55.335938 40.09375 54.597656 40.667969 54 "/>
<path style=" stroke:none;fill-rule:evenodd;fill:rgb(31.37255%,63.137257%,95.294118%);fill-opacity:1;" d="M 46 40.222656 C 45.910156 41.5625 45.761719 42.894531 45.554688 44.222656 C 44.527344 49.160156 42.675781 53.753906 40 58 C 39.472656 58.679688 38.785156 59.210938 38 59.554688 C 36.042969 59.988281 34.191406 59.769531 32.445312 58.890625 C 32.066406 60.21875 32.585938 60.8125 34 60.667969 C 34.003906 61.574219 34.15625 62.472656 34.445312 63.332031 C 32.738281 61.921875 31.554688 60.144531 30.890625 58 C 31.40625 56.878906 32 56.878906 32.667969 58 C 32.851562 58.320312 33.148438 58.542969 33.554688 58.667969 C 37.5 59.4375 39.871094 57.882812 40.667969 54 C 41.09375 53.796875 41.464844 53.503906 41.777344 53.109375 C 43.105469 48.789062 44.515625 44.492188 46 40.222656 "/>
<path style=" stroke:none;fill-rule:evenodd;fill:rgb(30.588236%,78.039217%,89.411765%);fill-opacity:1;" d="M 41.554688 49.554688 L 40.667969 54 C 40.09375 54.597656 39.722656 55.335938 39.554688 56.222656 C 37.585938 57.855469 35.289062 58.449219 32.667969 58 C 32 56.878906 31.40625 56.878906 30.890625 58 C 30.097656 56.664062 29.65625 55.183594 29.554688 53.554688 C 30.390625 55.648438 31.945312 56.832031 34.222656 57.109375 C 37.007812 56.613281 38.859375 54.984375 39.777344 52.222656 C 39.703125 51.78125 39.851562 51.484375 40.222656 51.332031 C 40.503906 50.636719 40.964844 50.023438 41.554688 49.554688 "/>
<path style=" stroke:none;fill-rule:evenodd;fill:rgb(94.901961%,38.431373%,91.37255%);fill-opacity:1;" d="M 69.554688 54.890625 C 68.839844 58.394531 67.210938 61.355469 64.667969 63.777344 C 64.238281 62.910156 64.089844 62.09375 64.222656 61.332031 C 64.78125 60.839844 65.300781 60.765625 65.777344 61.109375 C 67.070312 59.019531 68.328125 56.945312 69.554688 54.890625 "/>
<path style=" stroke:none;fill-rule:evenodd;fill:rgb(95.294118%,40.784314%,91.37255%);fill-opacity:1;" d="M 64.222656 64.222656 C 63.738281 65.148438 63 65.742188 62 66 C 61.875 65.207031 62.019531 64.464844 62.445312 63.777344 C 62.976562 64.105469 63.597656 64.261719 64.222656 64.222656 "/>
<path style=" stroke:none;fill-rule:evenodd;fill:rgb(90.196079%,30.588236%,96.470588%);fill-opacity:1;" d="M 65.109375 37.109375 C 64.363281 37.039062 63.609375 37.113281 62.890625 37.332031 C 61.597656 38.832031 60.632812 40.535156 60 42.445312 C 59.351562 49.695312 58.832031 56.953125 58.445312 64.222656 C 58.9375 64.5625 59.234375 65.007812 59.332031 65.554688 C 58.03125 66.0625 57.882812 66.652344 58.890625 67.332031 C 57.929688 67.554688 57.191406 68 56.667969 68.667969 L 54.890625 68.667969 C 54.695312 68.695312 54.546875 68.621094 54.445312 68.445312 C 54.753906 67.96875 54.976562 67.441406 55.109375 66.890625 C 57.257812 66 57.777344 64.515625 56.667969 62.445312 C 56.949219 59.191406 57.171875 55.929688 57.332031 52.667969 C 57.9375 47.800781 59.132812 43.023438 60.890625 38.445312 C 61.980469 36.75 63.386719 36.308594 65.109375 37.109375 "/>
<path style=" stroke:none;fill-rule:evenodd;fill:rgb(94.901961%,40.392157%,92.54902%);fill-opacity:1;" d="M 59.332031 65.554688 C 60.101562 65.773438 60.847656 66.074219 61.554688 66.445312 C 60.144531 67.671875 58.511719 68.558594 56.667969 69.109375 L 56.667969 68.667969 C 57.191406 68 57.929688 67.554688 58.890625 67.332031 C 57.882812 66.652344 58.03125 66.0625 59.332031 65.554688 "/>
<path style=" stroke:none;fill-rule:evenodd;fill:rgb(80.000001%,56.470591%,92.941177%);fill-opacity:1;" d="M 54.890625 68.667969 L 56.667969 68.667969 L 56.667969 69.109375 C 53.292969 70.398438 49.886719 70.695312 46.445312 70 C 47.582031 70.132812 48.617188 69.984375 49.554688 69.554688 L 52.222656 69.554688 C 53.335938 69.753906 54.226562 69.457031 54.890625 68.667969 "/>
</g>
</svg>
