<?xml version="1.0" encoding="UTF-8"?>
<!DOCTYPE svg PUBLIC "-//W3C//DTD SVG 1.1//EN" "http://www.w3.org/Graphics/SVG/1.1/DTD/svg11.dtd">
<svg xmlns="http://www.w3.org/2000/svg" version="1.1" width="225px" height="225px" style="shape-rendering:geometricPrecision; text-rendering:geometricPrecision; image-rendering:optimizeQuality; fill-rule:evenodd; clip-rule:evenodd" xmlns:xlink="http://www.w3.org/1999/xlink">
<g><path style="opacity:0.996" fill="#d9a2d8" d="M 106.5,65.5 C 105.211,66.6366 104.211,67.9699 103.5,69.5C 103.167,69.5 102.833,69.5 102.5,69.5C 101.335,66.9781 100.002,66.9781 98.5,69.5C 98.1667,69.5 97.8333,69.5 97.5,69.5C 97.5,68.8333 97.5,68.1667 97.5,67.5C 100.37,66.3664 103.37,65.6997 106.5,65.5 Z"/></g>
<g><path style="opacity:1" fill="#81d1d6" d="M 106.5,65.5 C 107.167,65.5 107.833,65.5 108.5,65.5C 107.556,67.6879 105.889,69.0212 103.5,69.5C 104.211,67.9699 105.211,66.6366 106.5,65.5 Z"/></g>
<g><path style="opacity:1" fill="#73d2e4" d="M 110.5,65.5 C 110.917,64.8761 111.584,64.5427 112.5,64.5C 116.732,65.0841 120.732,66.0841 124.5,67.5C 121.482,67.3354 118.482,67.502 115.5,68C 113.63,70.0396 111.63,71.8729 109.5,73.5C 108.833,73.8333 108.167,74.1667 107.5,74.5C 107.539,73.4168 107.873,72.4168 108.5,71.5C 111.663,70.6759 113.33,68.6759 113.5,65.5C 112.5,65.5 111.5,65.5 110.5,65.5 Z"/></g>
<g><path style="opacity:1" fill="#518afd" d="M 127.5,68.5 C 132.596,69.546 136.929,71.8793 140.5,75.5C 138.833,75.5 137.167,75.5 135.5,75.5C 132.715,75.933 130.381,77.2663 128.5,79.5C 126.97,83.9415 124.97,88.1082 122.5,92C 121.241,102.99 119.574,113.823 117.5,124.5C 114.974,131.929 113.64,139.595 113.5,147.5C 113.414,148.496 113.748,149.329 114.5,150C 112.122,153.525 108.789,155.525 104.5,156C 106.81,156.497 109.143,156.663 111.5,156.5C 109.393,157.468 107.059,157.802 104.5,157.5C 102.901,157.768 101.568,157.434 100.5,156.5C 98.5751,155.068 96.5751,153.568 94.5,152C 98.7511,151.171 99.5844,149.338 97,146.5C 95.8904,148.037 94.3904,148.703 92.5,148.5C 92.6882,150.103 92.1882,151.437 91,152.5C 88.8282,151.491 87.6615,149.824 87.5,147.5C 88.8333,147.5 90.1667,147.5 91.5,147.5C 91.1966,144.412 92.5299,142.746 95.5,142.5C 94.0271,133.499 96.0271,125.499 101.5,118.5C 100.54,117.188 100.706,115.854 102,114.5C 103.262,118.313 103.929,122.313 104,126.5C 105.011,127.337 106.178,127.67 107.5,127.5C 106.433,114.097 107.766,101.097 111.5,88.5C 110.5,88.5 109.5,88.5 108.5,88.5C 108.396,83.0579 109.896,82.3912 113,86.5C 113.728,83.7695 113.562,81.1029 112.5,78.5C 117.926,76.6404 119.926,78.6404 118.5,84.5C 120.124,84.6399 121.29,83.9733 122,82.5C 122.497,80.1902 122.663,77.8568 122.5,75.5C 121.07,75.4208 119.736,75.7542 118.5,76.5C 117.482,75.8075 116.482,75.1408 115.5,74.5C 115.937,72.9256 116.937,71.7589 118.5,71C 118.043,70.586 117.709,70.086 117.5,69.5C 120.768,68.513 124.102,68.1796 127.5,68.5 Z"/></g>
<g><path style="opacity:1" fill="#f77d9d" d="M 97.5,69.5 C 97.8333,69.5 98.1667,69.5 98.5,69.5C 95.4715,72.859 92.4715,76.1924 89.5,79.5C 91.0332,75.296 93.6998,71.9626 97.5,69.5 Z"/></g>
<g><path style="opacity:1" fill="#e865e1" d="M 102.5,69.5 C 97.6057,72.7161 94.2724,77.0494 92.5,82.5C 91.5416,82.9528 90.7083,83.6195 90,84.5C 89.2456,88.5709 87.7456,92.2376 85.5,95.5C 84.9759,97.3057 84.3092,98.9724 83.5,100.5C 79.8078,106.681 74.4744,109.015 67.5,107.5C 66.6993,105.958 66.366,104.292 66.5,102.5C 66.5,102.167 66.5,101.833 66.5,101.5C 71.8462,102.322 76.1796,100.655 79.5,96.5C 77.9128,99.2682 76.0795,101.935 74,104.5C 70.1007,101.743 68.2674,102.41 68.5,106.5C 75.2323,106.776 79.899,103.776 82.5,97.5C 82.2528,96.2867 81.5862,95.62 80.5,95.5C 80.8333,94.1667 81.1667,92.8333 81.5,91.5C 84.5208,88.7939 86.5208,85.4605 87.5,81.5C 88.5,81.1667 89.1667,80.5 89.5,79.5C 92.4715,76.1924 95.4715,72.859 98.5,69.5C 100.002,66.9781 101.335,66.9781 102.5,69.5 Z"/></g>
<g><path style="opacity:1" fill="#72d7d6" d="M 103.5,70.5 C 100.129,74.9826 97.1288,79.6493 94.5,84.5C 95.6729,78.6307 98.6729,73.9641 103.5,70.5 Z"/></g>
<g><path style="opacity:1" fill="#fbc92d" d="M 83.5,86.5 C 82.5592,88.0495 81.8925,89.7162 81.5,91.5C 79.4,94.1041 77.0666,96.6041 74.5,99C 71.9615,99.7958 69.6282,99.6291 67.5,98.5C 68.878,92.7403 71.5446,87.7403 75.5,83.5C 76.552,83.6495 77.552,83.4828 78.5,83C 79.1466,81.3905 79.98,79.8905 81,78.5C 81.6741,81.26 82.5075,83.9267 83.5,86.5 Z"/></g>
<g><path style="opacity:1" fill="#4a96f7" d="M 124.5,67.5 C 125.791,67.2627 126.791,67.596 127.5,68.5C 124.102,68.1796 120.768,68.513 117.5,69.5C 117.709,70.086 118.043,70.586 118.5,71C 116.937,71.7589 115.937,72.9256 115.5,74.5C 113.909,75.2189 112.409,76.2189 111,77.5C 110.755,79.6633 109.755,81.33 108,82.5C 106.677,88.4439 104.844,94.1105 102.5,99.5C 102.963,96.5176 103.296,93.5176 103.5,90.5C 105.515,84.787 107.515,79.1204 109.5,73.5C 111.63,71.8729 113.63,70.0396 115.5,68C 118.482,67.502 121.482,67.3354 124.5,67.5 Z"/></g>
<g><path style="opacity:1" fill="#fbc841" d="M 97.5,67.5 C 97.5,68.1667 97.5,68.8333 97.5,69.5C 93.6998,71.9626 91.0332,75.296 89.5,79.5C 89.1667,80.5 88.5,81.1667 87.5,81.5C 86.1667,83.1667 84.8333,84.8333 83.5,86.5C 82.5075,83.9267 81.6741,81.26 81,78.5C 79.98,79.8905 79.1466,81.3905 78.5,83C 77.552,83.4828 76.552,83.6495 75.5,83.5C 80.7994,75.5564 88.1328,70.2231 97.5,67.5 Z"/></g>
<g><path style="opacity:1" fill="#9eb2e1" d="M 102.5,69.5 C 102.833,69.5 103.167,69.5 103.5,69.5C 103.5,69.8333 103.5,70.1667 103.5,70.5C 98.6729,73.9641 95.6729,78.6307 94.5,84.5C 93.8333,85.1667 93.1667,85.8333 92.5,86.5C 92.5,85.1667 92.5,83.8333 92.5,82.5C 94.2724,77.0494 97.6057,72.7161 102.5,69.5 Z"/></g>
<g><path style="opacity:1" fill="#fd42f5" d="M 146.5,83.5 C 147.939,85.3603 149.605,87.027 151.5,88.5C 151.427,90.0269 152.094,91.0269 153.5,91.5C 153.697,95.3704 154.531,99.0371 156,102.5C 156.5,109.492 156.666,116.492 156.5,123.5C 153.737,128.126 150.904,132.793 148,137.5C 146.927,136.72 145.76,136.887 144.5,138C 144.205,139.714 144.538,141.547 145.5,143.5C 145.5,144.167 145.167,144.5 144.5,144.5C 143.07,144.579 141.736,144.246 140.5,143.5C 139.548,145.045 139.215,146.712 139.5,148.5C 139.5,149.167 139.167,149.5 138.5,149.5C 136.972,148.691 135.306,148.024 133.5,147.5C 133.279,146.265 132.612,145.265 131.5,144.5C 132.369,128.167 133.535,111.833 135,95.5C 136.424,91.2075 138.591,87.3741 141.5,84C 143.134,83.5065 144.801,83.3398 146.5,83.5 Z"/></g>
<g><path style="opacity:1" fill="#ff987d" d="M 87.5,81.5 C 86.5208,85.4605 84.5208,88.7939 81.5,91.5C 81.8925,89.7162 82.5592,88.0495 83.5,86.5C 84.8333,84.8333 86.1667,83.1667 87.5,81.5 Z"/></g>
<g><path style="opacity:1" fill="#4a8cfc" d="M 115.5,74.5 C 116.482,75.1408 117.482,75.8075 118.5,76.5C 119.736,75.7542 121.07,75.4208 122.5,75.5C 122.663,77.8568 122.497,80.1902 122,82.5C 121.29,83.9733 120.124,84.6399 118.5,84.5C 119.926,78.6404 117.926,76.6404 112.5,78.5C 113.562,81.1029 113.728,83.7695 113,86.5C 109.896,82.3912 108.396,83.0579 108.5,88.5C 109.5,88.5 110.5,88.5 111.5,88.5C 107.766,101.097 106.433,114.097 107.5,127.5C 106.178,127.67 105.011,127.337 104,126.5C 103.929,122.313 103.262,118.313 102,114.5C 100.706,115.854 100.54,117.188 101.5,118.5C 96.0271,125.499 94.0271,133.499 95.5,142.5C 92.5299,142.746 91.1966,144.412 91.5,147.5C 90.1667,147.5 88.8333,147.5 87.5,147.5C 87.6615,149.824 88.8282,151.491 91,152.5C 92.1882,151.437 92.6882,150.103 92.5,148.5C 94.3904,148.703 95.8904,148.037 97,146.5C 99.5844,149.338 98.7511,151.171 94.5,152C 96.5751,153.568 98.5751,155.068 100.5,156.5C 91.119,154.643 83.4524,149.976 77.5,142.5C 76.8505,140.565 76.5172,138.565 76.5,136.5C 73.3198,136.824 72.1531,135.49 73,132.5C 76.9331,134.478 81.0998,134.978 85.5,134C 87.286,133.215 88.786,132.049 90,130.5C 96.0194,120.948 100.186,110.614 102.5,99.5C 104.844,94.1105 106.677,88.4439 108,82.5C 109.755,81.33 110.755,79.6633 111,77.5C 112.409,76.2189 113.909,75.2189 115.5,74.5 Z"/></g>
<g><path style="opacity:1" fill="#c589e8" d="M 92.5,82.5 C 92.5,83.8333 92.5,85.1667 92.5,86.5C 90.0246,87.6874 89.0246,89.6874 89.5,92.5C 88.1667,93.5 86.8333,94.5 85.5,95.5C 87.7456,92.2376 89.2456,88.5709 90,84.5C 90.7083,83.6195 91.5416,82.9528 92.5,82.5 Z"/></g>
<g><path style="opacity:1" fill="#9eb0e2" d="M 92.5,86.5 C 91.4918,88.5439 90.4918,90.5439 89.5,92.5C 89.0246,89.6874 90.0246,87.6874 92.5,86.5 Z"/></g>
<g><path style="opacity:0.584" fill="#f39bef" d="M 151.5,88.5 C 152.906,88.9731 153.573,89.9731 153.5,91.5C 152.094,91.0269 151.427,90.0269 151.5,88.5 Z"/></g>
<g><path style="opacity:1" fill="#fd948d" d="M 81.5,91.5 C 81.1667,92.8333 80.8333,94.1667 80.5,95.5C 79.8333,95.5 79.5,95.8333 79.5,96.5C 76.1796,100.655 71.8462,102.322 66.5,101.5C 66.2627,100.209 66.596,99.209 67.5,98.5C 69.6282,99.6291 71.9615,99.7958 74.5,99C 77.0666,96.6041 79.4,94.1041 81.5,91.5 Z"/></g>
<g><path style="opacity:1" fill="#74d6d6" d="M 94.5,84.5 C 92.3048,90.8255 89.9714,97.1588 87.5,103.5C 84.6432,107.869 81.3099,111.869 77.5,115.5C 80.083,112.003 82.4164,108.336 84.5,104.5C 86.7009,100.76 88.3676,96.7597 89.5,92.5C 90.4918,90.5439 91.4918,88.5439 92.5,86.5C 93.1667,85.8333 93.8333,85.1667 94.5,84.5 Z"/></g>
<g><path style="opacity:1" fill="#46c5e5" d="M 101.5,90.5 C 100.55,96.9891 98.5502,102.989 95.5,108.5C 96.5099,102.784 97.8433,97.1175 99.5,91.5C 99.9569,90.7025 100.624,90.3691 101.5,90.5 Z"/></g>
<g><path style="opacity:1" fill="#46dbdc" d="M 102.5,83.5 C 102.326,85.861 101.993,88.1944 101.5,90.5C 100.624,90.3691 99.9569,90.7025 99.5,91.5C 97.8433,97.1175 96.5099,102.784 95.5,108.5C 94.8333,109.5 94.1667,110.5 93.5,111.5C 92.1429,112.59 91.1429,113.924 90.5,115.5C 91.842,108.318 93.6753,101.318 96,94.5C 98.5034,90.877 100.67,87.2103 102.5,83.5 Z"/></g>
<g><path style="opacity:1" fill="#f751ed" d="M 80.5,95.5 C 81.5862,95.62 82.2528,96.2867 82.5,97.5C 79.899,103.776 75.2323,106.776 68.5,106.5C 68.2674,102.41 70.1007,101.743 74,104.5C 76.0795,101.935 77.9128,99.2682 79.5,96.5C 79.5,95.8333 79.8333,95.5 80.5,95.5 Z"/></g>
<g><path style="opacity:1" fill="#47b5ee" d="M 109.5,73.5 C 107.515,79.1204 105.515,84.787 103.5,90.5C 100.213,99.9354 97.0462,109.602 94,119.5C 93.2917,120.381 92.4584,121.047 91.5,121.5C 92.1667,118.167 92.8333,114.833 93.5,111.5C 94.1667,110.5 94.8333,109.5 95.5,108.5C 98.5502,102.989 100.55,96.9891 101.5,90.5C 101.993,88.1944 102.326,85.861 102.5,83.5C 104.372,80.7686 106.039,77.7686 107.5,74.5C 108.167,74.1667 108.833,73.8333 109.5,73.5 Z"/></g>
<g><path style="opacity:1" fill="#6982fc" d="M 135.5,75.5 C 133.533,77.3039 131.699,79.3039 130,81.5C 127.667,86.027 125.501,90.6937 123.5,95.5C 120.695,112.778 118.362,130.111 116.5,147.5C 115.5,147.5 114.5,147.5 113.5,147.5C 113.64,139.595 114.974,131.929 117.5,124.5C 119.574,113.823 121.241,102.99 122.5,92C 124.97,88.1082 126.97,83.9415 128.5,79.5C 130.381,77.2663 132.715,75.933 135.5,75.5 Z"/></g>
<g><path style="opacity:1" fill="#aba9e2" d="M 89.5,92.5 C 88.3676,96.7597 86.7009,100.76 84.5,104.5C 81.7337,107.164 79.0671,109.997 76.5,113C 73.2281,113.788 70.2281,113.288 67.5,111.5C 67.1667,110.5 66.5,109.833 65.5,109.5C 65.1984,106.941 65.5318,104.607 66.5,102.5C 66.366,104.292 66.6993,105.958 67.5,107.5C 68.4166,109.511 70.0832,110.511 72.5,110.5C 78.0097,109.238 81.6764,105.904 83.5,100.5C 84.3092,98.9724 84.9759,97.3057 85.5,95.5C 86.8333,94.5 88.1667,93.5 89.5,92.5 Z"/></g>
<g><path style="opacity:1" fill="#cb82ea" d="M 83.5,100.5 C 81.6764,105.904 78.0097,109.238 72.5,110.5C 70.0832,110.511 68.4166,109.511 67.5,107.5C 74.4744,109.015 79.8078,106.681 83.5,100.5 Z"/></g>
<g><path style="opacity:1" fill="#86c7d9" d="M 84.5,104.5 C 82.4164,108.336 80.083,112.003 77.5,115.5C 73.1157,116.424 69.7824,115.091 67.5,111.5C 70.2281,113.288 73.2281,113.788 76.5,113C 79.0671,109.997 81.7337,107.164 84.5,104.5 Z"/></g>
<g><path style="opacity:1" fill="#7f7afb" d="M 135.5,75.5 C 137.167,75.5 138.833,75.5 140.5,75.5C 141.833,76.1667 142.833,77.1667 143.5,78.5C 141.4,78.5228 139.567,77.8561 138,76.5C 136.715,76.9504 135.548,77.6171 134.5,78.5C 131.777,83.0251 129.443,87.6918 127.5,92.5C 125.18,95.2837 124.013,98.617 124,102.5C 123.243,116.627 121.576,130.627 119,144.5C 118.241,149.705 115.741,153.705 111.5,156.5C 109.143,156.663 106.81,156.497 104.5,156C 108.789,155.525 112.122,153.525 114.5,150C 113.748,149.329 113.414,148.496 113.5,147.5C 114.5,147.5 115.5,147.5 116.5,147.5C 118.362,130.111 120.695,112.778 123.5,95.5C 125.501,90.6937 127.667,86.027 130,81.5C 131.699,79.3039 133.533,77.3039 135.5,75.5 Z"/></g>
<g><path style="opacity:1" fill="#ef73e7" d="M 153.5,91.5 C 158.759,101.794 159.759,112.46 156.5,123.5C 156.666,116.492 156.5,109.492 156,102.5C 154.531,99.0371 153.697,95.3704 153.5,91.5 Z"/></g>
<g><path style="opacity:1" fill="#a66afa" d="M 143.5,78.5 C 144.5,78.8333 145.167,79.5 145.5,80.5C 138.748,77.7068 134.248,79.7068 132,86.5C 131.129,90.984 129.796,95.3173 128,99.5C 127.187,115.882 125.854,132.215 124,148.5C 122.723,151.938 120.557,154.605 117.5,156.5C 116.833,156.5 116.167,156.5 115.5,156.5C 116.382,154.616 117.882,153.283 120,152.5C 120.29,150.048 120.956,147.715 122,145.5C 122.569,127.657 124.403,109.991 127.5,92.5C 129.443,87.6918 131.777,83.0251 134.5,78.5C 135.548,77.6171 136.715,76.9504 138,76.5C 139.567,77.8561 141.4,78.5228 143.5,78.5 Z"/></g>
<g><path style="opacity:1" fill="#9173fa" d="M 127.5,92.5 C 124.403,109.991 122.569,127.657 122,145.5C 120.956,147.715 120.29,150.048 120,152.5C 117.882,153.283 116.382,154.616 115.5,156.5C 114.167,156.5 112.833,156.5 111.5,156.5C 115.741,153.705 118.241,149.705 119,144.5C 121.576,130.627 123.243,116.627 124,102.5C 124.013,98.617 125.18,95.2837 127.5,92.5 Z"/></g>
<g><path style="opacity:1" fill="#cd5af7" d="M 145.5,80.5 C 148.471,82.4426 150.471,85.1092 151.5,88.5C 149.605,87.027 147.939,85.3603 146.5,83.5C 142.623,81.6903 139.457,82.6903 137,86.5C 133.048,96.7942 130.381,107.461 129,118.5C 128.637,125.843 128.137,133.177 127.5,140.5C 129.998,145.164 128.831,148.497 124,150.5C 123.691,151.766 123.191,152.933 122.5,154C 122.728,154.399 123.062,154.565 123.5,154.5C 122.01,156.28 120.01,156.946 117.5,156.5C 120.557,154.605 122.723,151.938 124,148.5C 125.854,132.215 127.187,115.882 128,99.5C 129.796,95.3173 131.129,90.984 132,86.5C 134.248,79.7068 138.748,77.7068 145.5,80.5 Z"/></g>
<g><path style="opacity:1" fill="#48f3d0" d="M 108.5,65.5 C 109.167,65.5 109.833,65.5 110.5,65.5C 111.5,65.5 112.5,65.5 113.5,65.5C 113.33,68.6759 111.663,70.6759 108.5,71.5C 107.873,72.4168 107.539,73.4168 107.5,74.5C 106.039,77.7686 104.372,80.7686 102.5,83.5C 100.67,87.2103 98.5034,90.877 96,94.5C 93.6753,101.318 91.842,108.318 90.5,115.5C 89.6618,115.842 89.3284,116.508 89.5,117.5C 86.5637,119.098 83.8971,121.098 81.5,123.5C 78.5541,124.655 75.5541,124.821 72.5,124C 68.5511,122.274 67.2178,119.441 68.5,115.5C 71.7252,118.034 74.7252,118.034 77.5,115.5C 81.3099,111.869 84.6432,107.869 87.5,103.5C 89.9714,97.1588 92.3048,90.8255 94.5,84.5C 97.1288,79.6493 100.129,74.9826 103.5,70.5C 103.5,70.1667 103.5,69.8333 103.5,69.5C 105.889,69.0212 107.556,67.6879 108.5,65.5 Z"/></g>
<g><path style="opacity:1" fill="#41fccd" d="M 87.5,103.5 C 89.0245,102.826 90.3578,101.826 91.5,100.5C 91.8333,101 92.1667,101.5 92.5,102C 90.624,106.388 89.124,110.888 88,115.5C 85.489,118.343 82.6557,120.843 79.5,123C 77.4815,122.848 75.4815,122.348 73.5,121.5C 73.281,120.325 73.6143,119.325 74.5,118.5C 75.7362,119.246 77.0695,119.579 78.5,119.5C 78.5,118.5 78.5,117.5 78.5,116.5C 82.1924,116.305 84.0258,114.305 84,110.5C 86.7548,108.99 87.9215,106.657 87.5,103.5 Z"/></g>
<g><path style="opacity:1" fill="#51e4d7" d="M 65.5,109.5 C 66.5,109.833 67.1667,110.5 67.5,111.5C 69.7824,115.091 73.1157,116.424 77.5,115.5C 74.7252,118.034 71.7252,118.034 68.5,115.5C 67.2178,119.441 68.5511,122.274 72.5,124C 75.5541,124.821 78.5541,124.655 81.5,123.5C 83.8971,121.098 86.5637,119.098 89.5,117.5C 87.431,123.717 83.2644,127.384 77,128.5C 71.8806,127.872 68.3806,125.206 66.5,120.5C 64.9568,116.918 64.6235,113.252 65.5,109.5 Z"/></g>
<g><path style="opacity:1" fill="#47b5ed" d="M 91.5,121.5 C 89.7067,130.238 84.3734,133.738 75.5,132C 74.5842,131.722 73.9175,131.222 73.5,130.5C 79.4028,131.512 84.5695,130.179 89,126.5C 89.3736,124.509 90.207,122.842 91.5,121.5 Z"/></g>
<g><path style="opacity:1" fill="#50a1f3" d="M 103.5,90.5 C 103.296,93.5176 102.963,96.5176 102.5,99.5C 100.186,110.614 96.0194,120.948 90,130.5C 88.786,132.049 87.286,133.215 85.5,134C 81.0998,134.978 76.9331,134.478 73,132.5C 72.1531,135.49 73.3198,136.824 76.5,136.5C 76.5172,138.565 76.8505,140.565 77.5,142.5C 73.6644,139.322 70.9977,135.322 69.5,130.5C 70.6649,127.978 71.9982,127.978 73.5,130.5C 73.9175,131.222 74.5842,131.722 75.5,132C 84.3734,133.738 89.7067,130.238 91.5,121.5C 92.4584,121.047 93.2917,120.381 94,119.5C 97.0462,109.602 100.213,99.9354 103.5,90.5 Z"/></g>
<g><path style="opacity:1" fill="#4ec7e4" d="M 93.5,111.5 C 92.8333,114.833 92.1667,118.167 91.5,121.5C 90.207,122.842 89.3736,124.509 89,126.5C 84.5695,130.179 79.4028,131.512 73.5,130.5C 71.9982,127.978 70.6649,127.978 69.5,130.5C 67.7234,127.495 66.7234,124.162 66.5,120.5C 68.3806,125.206 71.8806,127.872 77,128.5C 83.2644,127.384 87.431,123.717 89.5,117.5C 89.3284,116.508 89.6618,115.842 90.5,115.5C 91.1429,113.924 92.1429,112.59 93.5,111.5 Z"/></g>
<g><path style="opacity:1" fill="#f262e9" d="M 156.5,123.5 C 154.894,131.386 151.227,138.052 145.5,143.5C 144.538,141.547 144.205,139.714 144.5,138C 145.76,136.887 146.927,136.72 148,137.5C 150.904,132.793 153.737,128.126 156.5,123.5 Z"/></g>
<g><path style="opacity:1" fill="#f368e9" d="M 144.5,144.5 C 143.415,146.587 141.749,147.92 139.5,148.5C 139.215,146.712 139.548,145.045 140.5,143.5C 141.736,144.246 143.07,144.579 144.5,144.5 Z"/></g>
<g><path style="opacity:1" fill="#e64ef6" d="M 146.5,83.5 C 144.801,83.3398 143.134,83.5065 141.5,84C 138.591,87.3741 136.424,91.2075 135,95.5C 133.535,111.833 132.369,128.167 131.5,144.5C 132.612,145.265 133.279,146.265 133.5,147.5C 130.572,148.637 130.238,149.97 132.5,151.5C 130.345,152.001 128.678,153.001 127.5,154.5C 126.167,154.5 124.833,154.5 123.5,154.5C 123.062,154.565 122.728,154.399 122.5,154C 123.191,152.933 123.691,151.766 124,150.5C 128.831,148.497 129.998,145.164 127.5,140.5C 128.137,133.177 128.637,125.843 129,118.5C 130.381,107.461 133.048,96.7942 137,86.5C 139.457,82.6903 142.623,81.6903 146.5,83.5 Z"/></g>
<g><path style="opacity:1" fill="#f267ec" d="M 133.5,147.5 C 135.306,148.024 136.972,148.691 138.5,149.5C 135.322,152.258 131.655,154.258 127.5,155.5C 127.5,155.167 127.5,154.833 127.5,154.5C 128.678,153.001 130.345,152.001 132.5,151.5C 130.238,149.97 130.572,148.637 133.5,147.5 Z"/></g>
<g><path style="opacity:1" fill="#cc90ed" d="M 123.5,154.5 C 124.833,154.5 126.167,154.5 127.5,154.5C 127.5,154.833 127.5,155.167 127.5,155.5C 119.909,158.398 112.243,159.064 104.5,157.5C 107.059,157.802 109.393,157.468 111.5,156.5C 112.833,156.5 114.167,156.5 115.5,156.5C 116.167,156.5 116.833,156.5 117.5,156.5C 120.01,156.946 122.01,156.28 123.5,154.5 Z"/></g>
</svg>
